<!-- Generated by IcoMoon.io -->
<svg version="1.1" xmlns="http://www.w3.org/2000/svg" viewBox="0 0 24 24">
<title>facebook-circle</title>
<path d="M22.998 12.026q0-2.272-0.852-4.26t-2.375-3.511-3.511-2.375-4.26-0.852-4.26 0.852-3.511 2.375-2.375 3.511-0.852 4.26q0 2.014 0.645 3.795t1.859 3.227 2.814 2.427 3.459 1.342v-7.487h-2.169v-3.304h2.169v-2.736q0-1.084 0.542-1.962t1.394-1.394 1.936-0.516h2.736v3.304h-2.169q-0.465 0-0.8 0.336t-0.336 0.749v2.22h3.304v3.304h-3.304v7.642q2.117-0.207 3.924-1.136t3.15-2.401 2.091-3.356 0.749-4.053z"></path>
</svg>
