<!-- Generated by IcoMoon.io -->
<svg version="1.1" xmlns="http://www.w3.org/2000/svg" viewBox="0 0 24 24">
<title>linkedin</title>
<path d="M8.879 8.879h4.318v2.213h0.062c0.601-1.078 2.071-2.213 4.263-2.213 4.558 0 5.401 2.837 5.401 6.528v7.516h-4.501v-6.663c0-1.589-0.033-3.634-2.341-3.634-2.344 0-2.702 1.731-2.702 3.518v6.778h-4.499v-14.044z"></path>
<path d="M1.077 8.879h4.681v14.044h-4.681v-14.044z"></path>
<path d="M5.758 4.978c0 1.293-1.048 2.341-2.341 2.341s-2.341-1.048-2.341-2.341c0-1.293 1.048-2.341 2.341-2.341s2.341 1.048 2.341 2.341z"></path>
</svg>
