<!-- Generated by IcoMoon.io -->
<svg version="1.1" xmlns="http://www.w3.org/2000/svg" viewBox="0 0 24 24">
<title>linkedin-circle</title>
<path d="M12 1c-6.075 0-11 4.925-11 11s4.925 11 11 11 11-4.925 11-11-4.925-11-11-11zM9.307 16.559h-2.228v-7.168h2.228v7.168zM8.18 8.511c-0.704 0-1.158-0.498-1.158-1.115 0-0.629 0.469-1.113 1.187-1.113s1.158 0.484 1.172 1.113c0 0.616-0.454 1.115-1.201 1.115zM17.443 16.559h-2.227v-3.973c0-0.925-0.323-1.553-1.129-1.553-0.615 0-0.981 0.425-1.142 0.834-0.060 0.146-0.075 0.352-0.075 0.557v4.133h-2.229v-4.881c0-0.895-0.029-1.643-0.058-2.287h1.935l0.102 0.996h0.045c0.293-0.467 1.012-1.157 2.214-1.157 1.466 0 2.564 0.982 2.564 3.093v4.238z"></path>
</svg>
