<!-- Generated by IcoMoon.io -->
<svg version="1.1" xmlns="http://www.w3.org/2000/svg" viewBox="0 0 24 24">
<title>reddit-circle</title>
<path d="M14.443 15.327c0.111 0.111 0.111 0.282 0 0.381-0.7 0.7-2.050 0.761-2.443 0.761s-1.743-0.061-2.443-0.761c-0.111-0.098-0.111-0.27 0-0.381 0.098-0.098 0.27-0.098 0.368 0 0.442 0.454 1.4 0.602 2.075 0.602s1.621-0.147 2.075-0.602c0.098-0.098 0.27-0.098 0.368 0zM10.674 13.105c0 0.602-0.491 1.093-1.093 1.093-0.614 0-1.105-0.491-1.105-1.093 0-0.614 0.491-1.105 1.105-1.105 0.602 0 1.093 0.491 1.093 1.105zM15.523 13.105c0 0.602-0.491 1.093-1.105 1.093-0.602 0-1.093-0.491-1.093-1.093 0-0.614 0.491-1.105 1.093-1.105 0.614 0 1.105 0.491 1.105 1.105zM18.605 11.632c0-0.81-0.663-1.461-1.473-1.461-0.417 0-0.786 0.172-1.056 0.442-0.994-0.688-2.333-1.129-3.818-1.179l0.773-3.474 2.455 0.552c0 0.602 0.491 1.093 1.093 1.093 0.614 0 1.105-0.503 1.105-1.105s-0.491-1.105-1.105-1.105c-0.43 0-0.798 0.258-0.982 0.614l-2.713-0.602c-0.135-0.037-0.27 0.061-0.307 0.196l-0.847 3.83c-1.473 0.061-2.799 0.503-3.794 1.191-0.27-0.282-0.651-0.454-1.068-0.454-0.81 0-1.473 0.651-1.473 1.461 0 0.589 0.344 1.080 0.835 1.326-0.049 0.221-0.074 0.454-0.074 0.688 0 2.333 2.627 4.223 5.856 4.223 3.241 0 5.868-1.891 5.868-4.223 0-0.233-0.025-0.479-0.086-0.7 0.479-0.246 0.81-0.737 0.81-1.314zM23 12c0 6.077-4.923 11-11 11s-11-4.923-11-11 4.923-11 11-11 11 4.923 11 11z"></path>
</svg>
