<!-- Generated by IcoMoon.io -->
<svg version="1.1" xmlns="http://www.w3.org/2000/svg" viewBox="0 0 24 24">
<title>reddit</title>
<path d="M6.571 14.714c0-0.75 0.608-1.357 1.357-1.357s1.357 0.608 1.357 1.357c0 0.75-0.608 1.357-1.357 1.357s-1.357-0.608-1.357-1.357zM14.714 14.714c0-0.75 0.608-1.357 1.357-1.357s1.357 0.608 1.357 1.357c0 0.75-0.608 1.357-1.357 1.357s-1.357-0.608-1.357-1.357zM14.78 17.615c0.35-0.275 0.856-0.215 1.132 0.134s0.215 0.856-0.134 1.132c-0.973 0.767-2.456 1.262-3.778 1.262s-2.804-0.495-3.778-1.262c-0.35-0.275-0.41-0.782-0.134-1.132s0.782-0.41 1.132-0.134c0.56 0.441 1.669 0.917 2.78 0.917s2.22-0.475 2.78-0.917zM22.857 12c0-1.499-1.215-2.714-2.714-2.714-1.020 0-1.908 0.563-2.372 1.396-1.395-0.763-3.095-1.256-4.947-1.37l1.62-3.637 3.1 0.895c0.279 0.792 1.033 1.36 1.92 1.36 1.124 0 2.036-0.911 2.036-2.036s-0.911-2.036-2.036-2.036c-0.775 0-1.449 0.433-1.793 1.071l-3.455-0.997c-0.386-0.112-0.796 0.079-0.96 0.446l-2.2 4.941c-1.805 0.127-3.462 0.615-4.827 1.362-0.464-0.832-1.352-1.395-2.372-1.395-1.499 0-2.714 1.215-2.714 2.714 0 1.109 0.666 2.062 1.619 2.483-0.171 0.51-0.262 1.041-0.262 1.588 0 3.748 4.253 6.786 9.5 6.786s9.5-3.038 9.5-6.786c0-0.547-0.091-1.079-0.262-1.588 0.954-0.421 1.619-1.374 1.619-2.483zM19.464 5.129c0.422 0 0.763 0.342 0.763 0.763s-0.342 0.763-0.763 0.763-0.763-0.342-0.763-0.763 0.342-0.763 0.763-0.763zM2.5 12c0-0.748 0.609-1.357 1.357-1.357 0.541 0 1.009 0.318 1.227 0.777-0.709 0.538-1.297 1.158-1.732 1.839-0.499-0.201-0.852-0.689-0.852-1.259zM12 21.246c-4.357 0-7.888-2.317-7.888-5.174s3.532-5.174 7.888-5.174c4.357 0 7.888 2.317 7.888 5.174s-3.532 5.174-7.888 5.174zM20.648 13.259c-0.435-0.681-1.022-1.301-1.732-1.839 0.218-0.459 0.686-0.777 1.227-0.777 0.748 0 1.357 0.609 1.357 1.357 0 0.57-0.353 1.058-0.852 1.259z"></path>
</svg>
