<!-- Generated by IcoMoon.io -->
<svg version="1.1" xmlns="http://www.w3.org/2000/svg" viewBox="0 0 24 24">
<title>telegram-circle</title>
<path d="M12 1c-6.076 0-11 4.924-11 11s4.924 11 11 11 11-4.924 11-11-4.924-11-11-11zM17.405 8.541l-1.805 8.503c-0.125 0.606-0.49 0.748-0.997 0.468l-2.75-2.032-1.319 1.285c-0.155 0.15-0.275 0.275-0.55 0.275-0.357 0-0.296-0.133-0.417-0.473l-0.937-3.077-2.72-0.846c-0.589-0.18-0.593-0.584 0.133-0.872l10.596-4.091c0.481-0.219 0.95 0.116 0.765 0.859z"></path>
</svg>
