<!-- Generated by IcoMoon.io -->
<svg version="1.1" xmlns="http://www.w3.org/2000/svg" viewBox="0 0 24 24">
<title>twitter-circle</title>
<path d="M12 1c-6.075 0-11 4.925-11 11s4.925 11 11 11 11-4.925 11-11-4.925-11-11-11zM16.474 10.011c0.005 0.094 0.006 0.188 0.006 0.28 0 2.865-2.178 6.166-6.163 6.166-1.224 0-2.363-0.358-3.321-0.974 0.168 0.021 0.341 0.029 0.517 0.029 1.015 0 1.949-0.345 2.69-0.927-0.948-0.018-1.747-0.644-2.024-1.503 0.132 0.024 0.267 0.038 0.407 0.038 0.197 0 0.39-0.026 0.571-0.076-0.991-0.199-1.738-1.075-1.738-2.124v-0.026c0.292 0.162 0.627 0.26 0.982 0.272-0.582-0.39-0.964-1.052-0.964-1.805 0-0.396 0.107-0.77 0.293-1.090 1.069 1.311 2.664 2.173 4.465 2.265-0.038-0.159-0.056-0.324-0.056-0.495 0-1.195 0.969-2.167 2.167-2.167 0.622 0 1.186 0.264 1.581 0.685 0.494-0.099 0.957-0.277 1.375-0.526-0.162 0.505-0.504 0.93-0.952 1.2 0.439-0.054 0.856-0.17 1.244-0.343-0.29 0.434-0.658 0.817-1.081 1.122z"></path>
</svg>
