<!-- Generated by IcoMoon.io -->
<svg version="1.1" xmlns="http://www.w3.org/2000/svg" viewBox="0 0 24 24">
<title>twitter</title>
<path d="M22.769 5.321c-0.791 0.353-1.645 0.589-2.536 0.694 0.913-0.547 1.611-1.413 1.943-2.444-0.854 0.505-1.8 0.875-2.805 1.073-0.808-0.858-1.956-1.392-3.226-1.392-2.439 0-4.416 1.977-4.416 4.416 0 0.345 0.038 0.681 0.114 1.005-3.672-0.185-6.927-1.943-9.106-4.618-0.379 0.652-0.597 1.413-0.597 2.221 0 1.531 0.778 2.885 1.964 3.676-0.723-0.021-1.405-0.223-2.002-0.551 0 0.017 0 0.038 0 0.055 0 2.141 1.523 3.928 3.546 4.332-0.37 0.101-0.761 0.156-1.165 0.156-0.286 0-0.559-0.029-0.833-0.080 0.564 1.754 2.195 3.032 4.126 3.070-1.514 1.186-3.415 1.893-5.489 1.893-0.357 0-0.707-0.021-1.056-0.063 1.96 1.258 4.282 1.985 6.776 1.985 8.126 0 12.571-6.734 12.571-12.571 0-0.193-0.004-0.383-0.013-0.572 0.862-0.618 1.611-1.396 2.204-2.284z"></path>
</svg>
