<!-- Generated by IcoMoon.io -->
<svg version="1.1" xmlns="http://www.w3.org/2000/svg" viewBox="0 0 24 24">
<title>youtube</title>
<path d="M22.367 7.769c0 0-0.207-1.459-0.843-2.099-0.806-0.843-1.707-0.847-2.12-0.897-2.959-0.215-7.401-0.215-7.401-0.215h-0.008c0 0-4.442 0-7.401 0.215-0.413 0.050-1.314 0.054-2.12 0.897-0.636 0.64-0.839 2.099-0.839 2.099s-0.211 1.711-0.211 3.426v1.603c0 1.711 0.211 3.426 0.211 3.426s0.207 1.459 0.839 2.099c0.806 0.843 1.864 0.814 2.335 0.905 1.694 0.161 7.194 0.211 7.194 0.211s4.446-0.008 7.405-0.219c0.413-0.050 1.314-0.054 2.12-0.897 0.636-0.64 0.843-2.099 0.843-2.099s0.211-1.711 0.211-3.426v-1.603c-0.004-1.711-0.215-3.426-0.215-3.426zM9.814 14.744v-5.946l5.715 2.983-5.715 2.963z"></path>
</svg>
