<!-- Generated by IcoMoon.io -->
<svg version="1.1" xmlns="http://www.w3.org/2000/svg" viewBox="0 0 24 24">
<title>youtube-circle</title>
<path d="M13.837 11.809l-2.574-1.201c-0.225-0.104-0.409 0.013-0.409 0.261v2.262c0 0.249 0.184 0.366 0.409 0.261l2.572-1.201c0.226-0.105 0.226-0.277 0.001-0.383zM12 1c-6.075 0-11 4.925-11 11s4.925 11 11 11 11-4.925 11-11-4.925-11-11-11zM12 16.469c-5.631 0-5.729-0.508-5.729-4.469s0.099-4.469 5.729-4.469 5.729 0.508 5.729 4.469-0.099 4.469-5.729 4.469z"></path>
</svg>
