<svg width="458" height="624" viewBox="0 0 458 624" fill="none" xmlns="http://www.w3.org/2000/svg">
<path d="M275.548 214.755C275.548 217.157 276.282 219.504 277.658 221.501C279.034 223.498 280.989 225.055 283.277 225.974C285.565 226.893 288.083 227.133 290.512 226.665C292.94 226.196 295.172 225.04 296.923 223.342C298.674 221.643 299.866 219.48 300.349 217.124C300.833 214.769 300.585 212.327 299.637 210.108C298.689 207.889 297.084 205.993 295.025 204.659C292.966 203.324 290.545 202.612 288.069 202.612V2.00085" stroke="#0030AE" stroke-width="3" stroke-linecap="round" stroke-linejoin="round"/>
<path opacity="0.2" d="M0.0801392 306.796H429.38V624.001H0.0801392V306.796Z" fill="#E9E9E9"/>
<path d="M37.0475 288.908H458V603.728H37.0475V288.908Z" fill="white"/>
<path d="M37.0475 272.212H458V288.907H37.0475V272.212Z" fill="#F5F5F5"/>
<path d="M445.479 282.946C443.174 282.946 441.305 281.077 441.305 278.772C441.305 276.467 443.174 274.598 445.479 274.598C447.784 274.598 449.653 276.467 449.653 278.772C449.653 281.077 447.784 282.946 445.479 282.946Z" fill="#FF5252"/>
<path d="M434.746 282.946C432.441 282.946 430.573 281.077 430.573 278.772C430.573 276.467 432.441 274.598 434.746 274.598C437.052 274.598 438.92 276.467 438.92 278.772C438.92 281.077 437.052 282.946 434.746 282.946Z" fill="#FFFF00"/>
<path d="M422.821 282.946C420.516 282.946 418.647 281.077 418.647 278.772C418.647 276.467 420.516 274.598 422.821 274.598C425.126 274.598 426.995 276.467 426.995 278.772C426.995 281.077 425.126 282.946 422.821 282.946Z" fill="#1FC1A7"/>
<path d="M338.75 426.045H425.802V533.37H338.75V426.045Z" fill="url(#paint0_linear)"/>
<path d="M342.328 427.237H422.225V527.407H342.328V427.237Z" fill="white"/>
<path d="M413.283 430.814C417.256 430.814 417.256 437.969 413.283 437.969C409.31 437.969 409.301 430.814 413.283 430.814Z" fill="#0030AE"/>
<path d="M351.273 430.814C355.246 430.814 355.246 437.969 351.273 437.969C347.3 437.969 347.291 430.814 351.273 430.814Z" fill="#0030AE"/>
<path d="M69.2454 467.783H156.298V576.301H69.2454V467.783Z" fill="url(#paint1_linear)"/>
<path d="M70.4375 471.361H150.335V571.531H70.4375V471.361Z" fill="white"/>
<path d="M142.584 476.13C146.559 476.13 146.559 482.092 142.584 482.092C138.609 482.092 138.609 476.13 142.584 476.13Z" fill="#0030AE"/>
<path d="M79.3813 476.13C83.3563 476.13 83.3563 482.092 79.3813 482.092C75.4063 482.092 75.4063 476.13 79.3813 476.13Z" fill="#0030AE"/>
<path d="M223.078 477.322H308.938V585.839H223.078V477.322Z" fill="url(#paint2_linear)"/>
<path d="M226.655 480.899H305.36V581.069H226.655V480.899Z" fill="white"/>
<path d="M297.609 485.671C301.584 485.671 301.584 491.633 297.609 491.633C293.634 491.633 293.634 485.671 297.609 485.671Z" fill="#0030AE"/>
<path d="M234.408 485.671C238.381 485.671 238.381 491.633 234.408 491.633C230.435 491.633 230.426 485.671 234.408 485.671Z" fill="#0030AE"/>
<path d="M60.8976 325.875H146.758V434.392H60.8976V325.875Z" fill="url(#paint3_linear)"/>
<path d="M63.2827 329.452H143.18V429.622H63.2827V329.452Z" fill="white"/>
<path d="M135.43 333.03C139.403 333.03 139.403 338.993 135.43 338.993C131.458 338.993 131.449 333.03 135.43 333.03Z" fill="#0030AE"/>
<path d="M72.2231 333.03C76.2023 333.03 76.2023 338.993 72.2231 338.993C68.2439 338.993 68.2607 333.03 72.2231 333.03Z" fill="#0030AE"/>
<path d="M322.055 328.26V322.297H317.285" stroke="#64FFDA" stroke-miterlimit="10"/>
<path d="M307.745 322.297H257.66" stroke="#64FFDA" stroke-miterlimit="10" stroke-dasharray="10.82 9.92"/>
<path d="M252.89 322.297H248.12V328.26" stroke="#64FFDA" stroke-miterlimit="10"/>
<g opacity="0.2">
<path d="M250.505 323.489H324.44V423.659H250.505V323.489Z" fill="#E9E9E9"/>
<path d="M323.94 423.159V323.989H251.005V423.159H323.94Z" stroke="black" stroke-opacity="0.2"/>
</g>
<path d="M318.478 272.213L286.881 224.513L255.275 272.213" stroke="#0030AE" stroke-width="3" stroke-linecap="round" stroke-linejoin="round"/>
<path d="M244.543 261.48H331.595V369.997H244.543V261.48Z" fill="url(#paint4_linear)"/>
<path d="M246.927 265.057H326.825V364.035H246.927V265.057Z" fill="white"/>
<path d="M319.075 268.635C323.048 268.635 323.048 274.598 319.075 274.598C315.103 274.598 315.094 268.635 319.075 268.635Z" fill="#0030AE"/>
<path d="M255.873 268.635C259.846 268.635 259.846 274.598 255.873 274.598C251.9 274.598 251.892 268.635 255.873 268.635Z" fill="#0030AE"/>
<circle cx="286.428" cy="315.654" r="27.2305" fill="#F2F2F2"/>
<path d="M286.868 337.614C299.238 337.614 309.267 327.585 309.267 315.215C309.267 302.844 299.238 292.815 286.868 292.815C274.497 292.815 264.468 302.844 264.468 315.215C264.468 327.585 274.497 337.614 286.868 337.614Z" fill="black"/>
<path d="M286.868 337.614C299.238 337.614 309.267 327.585 309.267 315.215C309.267 302.844 299.238 292.815 286.868 292.815C274.497 292.815 264.468 302.844 264.468 315.215C264.468 327.585 274.497 337.614 286.868 337.614Z" fill="#F7931A"/>
<path style="mix-blend-mode:soft-light" d="M286.868 337.614C299.238 337.614 309.267 327.585 309.267 315.215C309.267 302.844 299.238 292.815 286.868 292.815C274.497 292.815 264.468 302.844 264.468 315.215C264.468 327.585 274.497 337.614 286.868 337.614Z" fill="url(#paint5_linear)"/>
<g filter="url(#filter0_d)">
<path d="M297.602 312.258C298.071 309.128 295.686 307.445 292.427 306.322L293.485 302.081L290.904 301.439L289.874 305.568C289.196 305.398 288.5 305.239 287.806 305.081L288.843 300.925L286.263 300.282L285.206 304.521C284.644 304.393 284.092 304.267 283.557 304.133L283.56 304.119L280 303.231L279.313 305.988C279.313 305.988 281.229 306.427 281.189 306.453C282.234 306.715 282.422 307.406 282.391 307.956L281.187 312.787C281.259 312.804 281.352 312.831 281.456 312.872L281.183 312.804L279.496 319.572C279.367 319.889 279.043 320.365 278.311 320.184C278.338 320.222 276.436 319.717 276.436 319.717L275.155 322.671L278.514 323.508C279.139 323.665 279.751 323.829 280.353 323.983L279.285 328.272L281.864 328.914L282.921 324.673C283.626 324.863 284.31 325.039 284.979 325.206L283.925 329.429L286.505 330.071L287.573 325.792C291.975 326.625 295.284 326.289 296.677 322.308C297.8 319.103 296.622 317.253 294.306 316.048C295.993 315.66 297.263 314.55 297.602 312.258ZM291.703 320.528C290.907 323.734 285.509 322 283.759 321.566L285.177 315.884C286.928 316.321 292.538 317.186 291.703 320.528ZM292.502 312.212C291.775 315.128 287.283 313.645 285.827 313.282L287.111 308.13C288.567 308.493 293.261 309.17 292.502 312.212Z" fill="black"/>
</g>
<path d="M297.602 312.258C298.071 309.128 295.686 307.445 292.427 306.322L293.485 302.081L290.904 301.439L289.874 305.568C289.196 305.398 288.5 305.239 287.806 305.081L288.843 300.925L286.263 300.282L285.206 304.521C284.644 304.393 284.092 304.267 283.557 304.133L283.56 304.119L280 303.231L279.313 305.988C279.313 305.988 281.229 306.427 281.189 306.453C282.234 306.715 282.422 307.406 282.391 307.956L281.187 312.787C281.259 312.804 281.352 312.831 281.456 312.872L281.183 312.804L279.496 319.572C279.367 319.889 279.043 320.365 278.311 320.184C278.338 320.222 276.436 319.717 276.436 319.717L275.155 322.671L278.514 323.508C279.139 323.665 279.751 323.829 280.353 323.983L279.285 328.272L281.864 328.914L282.921 324.673C283.626 324.863 284.31 325.039 284.979 325.206L283.925 329.429L286.505 330.071L287.573 325.792C291.975 326.625 295.284 326.289 296.677 322.308C297.8 319.103 296.622 317.253 294.306 316.048C295.993 315.66 297.263 314.55 297.602 312.258ZM291.703 320.528C290.907 323.734 285.509 322 283.759 321.566L285.177 315.884C286.928 316.321 292.538 317.186 291.703 320.528ZM292.502 312.212C291.775 315.128 287.283 313.645 285.827 313.282L287.111 308.13C288.567 308.493 293.261 309.17 292.502 312.212Z" fill="white"/>
<circle r="27.2305" transform="matrix(-1 0 0 1 383.931 480.793)" fill="#F2F2F2"/>
<path d="M383.492 500.117C372.576 500.117 363.728 491.268 363.728 480.353C363.728 469.438 372.576 460.589 383.492 460.589C394.407 460.589 403.256 469.438 403.256 480.353C403.256 491.268 394.407 500.117 383.492 500.117Z" fill="black"/>
<path d="M383.492 500.117C372.576 500.117 363.728 491.268 363.728 480.353C363.728 469.438 372.576 460.589 383.492 460.589C394.407 460.589 403.256 469.438 403.256 480.353C403.256 491.268 394.407 500.117 383.492 500.117Z" fill="#23292F"/>
<path style="mix-blend-mode:soft-light" d="M383.492 500.117C372.576 500.117 363.728 491.268 363.728 480.353C363.728 469.438 372.576 460.589 383.492 460.589C394.407 460.589 403.256 469.438 403.256 480.353C403.256 491.268 394.407 500.117 383.492 500.117Z" fill="url(#paint6_linear)"/>
<path d="M375.108 471.13H371.679L378.813 478.194C380.06 479.423 381.741 480.112 383.492 480.112C385.243 480.112 386.923 479.423 388.171 478.194L395.308 471.13H391.876L386.456 476.494C385.667 477.273 384.603 477.709 383.494 477.709C382.386 477.709 381.322 477.273 380.532 476.494L375.108 471.13ZM391.918 490.77H395.35L388.169 483.664C386.922 482.436 385.242 481.748 383.492 481.748C381.741 481.748 380.061 482.436 378.814 483.664L371.633 490.77H375.066L380.527 485.36C381.316 484.581 382.38 484.144 383.489 484.144C384.598 484.144 385.662 484.581 386.451 485.36L391.918 490.77Z" fill="white"/>
<circle r="26.8312" transform="matrix(-1 0 0 1 265.411 535.159)" fill="#F2F2F2"/>
<ellipse rx="27.4275" ry="26.8312" transform="matrix(-1 0 0 1 109.79 522.041)" fill="#F2F2F2"/>
<ellipse rx="26.8312" ry="27.4275" transform="matrix(-1 0 0 1 103.231 374.767)" fill="#F2F2F2"/>
<path d="M265.786 554.578C276.701 554.578 285.55 545.729 285.55 534.814C285.55 523.898 276.701 515.05 265.786 515.05C254.87 515.05 246.021 523.898 246.021 534.814C246.021 545.729 254.87 554.578 265.786 554.578Z" fill="black"/>
<path d="M265.786 554.578C276.701 554.578 285.55 545.729 285.55 534.814C285.55 523.898 276.701 515.05 265.786 515.05C254.87 515.05 246.021 523.898 246.021 534.814C246.021 545.729 254.87 554.578 265.786 554.578Z" fill="#BFBBBB"/>
<path style="mix-blend-mode:soft-light" d="M265.786 554.578C276.701 554.578 285.55 545.729 285.55 534.814C285.55 523.898 276.701 515.05 265.786 515.05C254.87 515.05 246.021 523.898 246.021 534.814C246.021 545.729 254.87 554.578 265.786 554.578Z" fill="url(#paint7_linear)"/>
<g filter="url(#filter1_d)">
<path d="M258.442 539.049L256.562 539.779L257.469 536.143L259.371 535.379L262.113 524.273H268.871L266.87 532.437L268.728 531.685L267.832 535.308L265.952 536.06L264.834 540.65H275.009L273.858 545.355H256.894L258.442 539.049Z" fill="black"/>
</g>
<path d="M258.442 539.049L256.562 539.779L257.469 536.143L259.371 535.379L262.113 524.273H268.871L266.87 532.437L268.728 531.685L267.832 535.308L265.952 536.06L264.834 540.65H275.009L273.858 545.355H256.894L258.442 539.049Z" fill="white"/>
<path d="M110.386 541.717C99.5194 541.717 90.71 532.907 90.71 522.041C90.71 511.174 99.5194 502.364 110.386 502.364C121.253 502.364 130.062 511.174 130.062 522.041C130.062 532.907 121.253 541.717 110.386 541.717Z" fill="black"/>
<path d="M110.386 541.717C99.5194 541.717 90.71 532.907 90.71 522.041C90.71 511.174 99.5194 502.364 110.386 502.364C121.253 502.364 130.062 511.174 130.062 522.041C130.062 532.907 121.253 541.717 110.386 541.717Z" fill="#627EEA"/>
<path style="mix-blend-mode:soft-light" d="M110.386 541.717C99.5194 541.717 90.71 532.907 90.71 522.041C90.71 511.174 99.5194 502.364 110.386 502.364C121.253 502.364 130.062 511.174 130.062 522.041C130.062 532.907 121.253 541.717 110.386 541.717Z" fill="url(#paint8_linear)"/>
<g filter="url(#filter2_d)">
<path d="M109.733 529.869L99.8924 524.16L109.733 537.775L119.569 524.159L109.733 529.866V529.869ZM109.733 506.3L99.8989 522.329L109.733 528.039L119.569 522.329L109.733 506.3Z" fill="black"/>
</g>
<path d="M109.733 506.3V517.935L99.899 522.329L109.733 506.3Z" fill="white" fill-opacity="0.602"/>
<path d="M109.733 506.3L119.569 522.329L109.733 517.935V506.3Z" fill="white"/>
<path d="M109.733 529.869V537.775L99.8924 524.161L109.733 529.869Z" fill="white" fill-opacity="0.602"/>
<path d="M109.733 537.775V529.868L119.569 524.161L109.733 537.775Z" fill="white"/>
<path d="M109.733 528.039L99.899 522.329L109.733 517.937V528.039Z" fill="white" fill-opacity="0.2"/>
<path d="M119.569 522.329L109.733 528.039V517.937L119.569 522.329Z" fill="white" fill-opacity="0.602"/>
<path d="M102.402 393.832C91.4865 393.832 82.6379 384.983 82.6379 374.068C82.6379 363.152 91.4865 354.304 102.402 354.304C113.317 354.304 122.166 363.152 122.166 374.068C122.166 384.983 113.317 393.832 102.402 393.832Z" fill="black"/>
<path d="M102.402 393.832C91.4865 393.832 82.6379 384.983 82.6379 374.068C82.6379 363.152 91.4865 354.304 102.402 354.304C113.317 354.304 122.166 363.152 122.166 374.068C122.166 384.983 113.317 393.832 102.402 393.832Z" fill="#26A17B"/>
<path style="mix-blend-mode:soft-light" d="M102.402 393.832C91.4865 393.832 82.6379 384.983 82.6379 374.068C82.6379 363.152 91.4865 354.304 102.402 354.304C113.317 354.304 122.166 363.152 122.166 374.068C122.166 384.983 113.317 393.832 102.402 393.832Z" fill="url(#paint9_linear)"/>
<g filter="url(#filter3_d)">
<path d="M99.8684 375.89V375.887C100.013 375.898 100.76 375.942 102.427 375.942C103.758 375.942 104.695 375.903 105.024 375.887V375.891C110.147 375.666 113.971 374.774 113.971 373.707C113.971 372.641 110.147 371.749 105.024 371.519V375.003C104.69 375.027 103.73 375.083 102.405 375.083C100.814 375.083 100.017 375.018 99.8684 375.004V371.522C94.7561 371.75 90.9417 372.642 90.9417 373.707C90.9417 374.774 94.7561 375.663 99.8684 375.89ZM99.8684 371.16V368.042H92.7349V363.288H112.158V368.042H105.024V371.158C110.822 371.424 115.182 372.573 115.182 373.949C115.182 375.325 110.822 376.472 105.024 376.74V386.73H99.8684V376.737C94.0802 376.471 89.7308 375.323 89.7308 373.949C89.7308 372.575 94.0802 371.427 99.8684 371.16Z" fill="black"/>
</g>
<path d="M99.8684 375.89V375.887C100.013 375.898 100.76 375.942 102.427 375.942C103.758 375.942 104.695 375.903 105.024 375.887V375.891C110.147 375.666 113.971 374.774 113.971 373.707C113.971 372.641 110.147 371.749 105.024 371.519V375.003C104.69 375.027 103.73 375.083 102.405 375.083C100.814 375.083 100.017 375.018 99.8684 375.004V371.522C94.7561 371.75 90.9417 372.642 90.9417 373.707C90.9417 374.774 94.7561 375.663 99.8684 375.89ZM99.8684 371.16V368.042H92.7349V363.288H112.158V368.042H105.024V371.158C110.822 371.424 115.182 372.573 115.182 373.949C115.182 375.325 110.822 376.472 105.024 376.74V386.73H99.8684V376.737C94.0802 376.471 89.7308 375.323 89.7308 373.949C89.7308 372.575 94.0802 371.427 99.8684 371.16Z" fill="white"/>
<defs>
<filter id="filter0_d" x="274.155" y="299.782" width="24.506" height="31.7896" filterUnits="userSpaceOnUse" color-interpolation-filters="sRGB">
<feFlood flood-opacity="0" result="BackgroundImageFix"/>
<feColorMatrix in="SourceAlpha" type="matrix" values="0 0 0 0 0 0 0 0 0 0 0 0 0 0 0 0 0 0 127 0"/>
<feOffset dy="0.5"/>
<feGaussianBlur stdDeviation="0.5"/>
<feColorMatrix type="matrix" values="0 0 0 0 0 0 0 0 0 0 0 0 0 0 0 0 0 0 0.204257 0"/>
<feBlend mode="normal" in2="BackgroundImageFix" result="effect1_dropShadow"/>
<feBlend mode="normal" in="SourceGraphic" in2="effect1_dropShadow" result="shape"/>
</filter>
<filter id="filter1_d" x="255.562" y="523.773" width="20.4465" height="23.0817" filterUnits="userSpaceOnUse" color-interpolation-filters="sRGB">
<feFlood flood-opacity="0" result="BackgroundImageFix"/>
<feColorMatrix in="SourceAlpha" type="matrix" values="0 0 0 0 0 0 0 0 0 0 0 0 0 0 0 0 0 0 127 0"/>
<feOffset dy="0.5"/>
<feGaussianBlur stdDeviation="0.5"/>
<feColorMatrix type="matrix" values="0 0 0 0 0 0 0 0 0 0 0 0 0 0 0 0 0 0 0.204257 0"/>
<feBlend mode="normal" in2="BackgroundImageFix" result="effect1_dropShadow"/>
<feBlend mode="normal" in="SourceGraphic" in2="effect1_dropShadow" result="shape"/>
</filter>
<filter id="filter2_d" x="98.8923" y="505.8" width="21.6763" height="33.4754" filterUnits="userSpaceOnUse" color-interpolation-filters="sRGB">
<feFlood flood-opacity="0" result="BackgroundImageFix"/>
<feColorMatrix in="SourceAlpha" type="matrix" values="0 0 0 0 0 0 0 0 0 0 0 0 0 0 0 0 0 0 127 0"/>
<feOffset dy="0.5"/>
<feGaussianBlur stdDeviation="0.5"/>
<feColorMatrix type="matrix" values="0 0 0 0 0 0 0 0 0 0 0 0 0 0 0 0 0 0 0.204257 0"/>
<feBlend mode="normal" in2="BackgroundImageFix" result="effect1_dropShadow"/>
<feBlend mode="normal" in="SourceGraphic" in2="effect1_dropShadow" result="shape"/>
</filter>
<filter id="filter3_d" x="88.7307" y="362.788" width="27.4509" height="25.4415" filterUnits="userSpaceOnUse" color-interpolation-filters="sRGB">
<feFlood flood-opacity="0" result="BackgroundImageFix"/>
<feColorMatrix in="SourceAlpha" type="matrix" values="0 0 0 0 0 0 0 0 0 0 0 0 0 0 0 0 0 0 127 0"/>
<feOffset dy="0.5"/>
<feGaussianBlur stdDeviation="0.5"/>
<feColorMatrix type="matrix" values="0 0 0 0 0 0 0 0 0 0 0 0 0 0 0 0 0 0 0.204257 0"/>
<feBlend mode="normal" in2="BackgroundImageFix" result="effect1_dropShadow"/>
<feBlend mode="normal" in="SourceGraphic" in2="effect1_dropShadow" result="shape"/>
</filter>
<linearGradient id="paint0_linear" x1="-38558" y1="64638.6" x2="-38558" y2="51432.3" gradientUnits="userSpaceOnUse">
<stop stop-color="#808080" stop-opacity="0.25"/>
<stop offset="0.54" stop-color="#808080" stop-opacity="0.12"/>
<stop offset="1" stop-color="#808080" stop-opacity="0.1"/>
</linearGradient>
<linearGradient id="paint1_linear" x1="-65560.5" y1="70642.8" x2="-65560.5" y2="57290.8" gradientUnits="userSpaceOnUse">
<stop stop-color="#808080" stop-opacity="0.25"/>
<stop offset="0.54" stop-color="#808080" stop-opacity="0.12"/>
<stop offset="1" stop-color="#808080" stop-opacity="0.1"/>
</linearGradient>
<linearGradient id="paint2_linear" x1="-49518.2" y1="71793.9" x2="-49518.2" y2="58441.9" gradientUnits="userSpaceOnUse">
<stop stop-color="#808080" stop-opacity="0.25"/>
<stop offset="0.54" stop-color="#808080" stop-opacity="0.12"/>
<stop offset="1" stop-color="#808080" stop-opacity="0.1"/>
</linearGradient>
<linearGradient id="paint3_linear" x1="-65572.2" y1="52926.5" x2="-65572.2" y2="39574.5" gradientUnits="userSpaceOnUse">
<stop stop-color="#808080" stop-opacity="0.25"/>
<stop offset="0.54" stop-color="#808080" stop-opacity="0.12"/>
<stop offset="1" stop-color="#808080" stop-opacity="0.1"/>
</linearGradient>
<linearGradient id="paint4_linear" x1="-47990.4" y1="44873" x2="-47990.4" y2="31521" gradientUnits="userSpaceOnUse">
<stop stop-color="#808080" stop-opacity="0.25"/>
<stop offset="0.54" stop-color="#808080" stop-opacity="0.12"/>
<stop offset="1" stop-color="#808080" stop-opacity="0.1"/>
</linearGradient>
<linearGradient id="paint5_linear" x1="286.868" y1="292.815" x2="286.868" y2="337.614" gradientUnits="userSpaceOnUse">
<stop stop-color="white" stop-opacity="0.5"/>
<stop offset="1" stop-opacity="0.5"/>
</linearGradient>
<linearGradient id="paint6_linear" x1="383.492" y1="460.589" x2="383.492" y2="500.117" gradientUnits="userSpaceOnUse">
<stop stop-color="white" stop-opacity="0.5"/>
<stop offset="1" stop-opacity="0.5"/>
</linearGradient>
<linearGradient id="paint7_linear" x1="265.786" y1="515.05" x2="265.786" y2="554.578" gradientUnits="userSpaceOnUse">
<stop stop-color="white" stop-opacity="0.5"/>
<stop offset="1" stop-opacity="0.5"/>
</linearGradient>
<linearGradient id="paint8_linear" x1="110.386" y1="502.364" x2="110.386" y2="541.717" gradientUnits="userSpaceOnUse">
<stop stop-color="white" stop-opacity="0.5"/>
<stop offset="1" stop-opacity="0.5"/>
</linearGradient>
<linearGradient id="paint9_linear" x1="102.402" y1="354.304" x2="102.402" y2="393.832" gradientUnits="userSpaceOnUse">
<stop stop-color="white" stop-opacity="0.5"/>
<stop offset="1" stop-opacity="0.5"/>
</linearGradient>
</defs>
</svg>
