<svg width="1245" height="1065" viewBox="0 0 1245 1065" fill="none" xmlns="http://www.w3.org/2000/svg">
<g opacity="0.3">
<path d="M852.504 885.295C938.47 822.29 987.763 726.762 987.763 623.217C987.763 593.369 983.607 563.798 975.391 535.295L970.327 536.64C978.405 564.695 982.506 593.831 982.506 623.217C982.506 725.193 933.957 819.258 849.312 881.3L852.504 885.295Z" fill="white"/>
<path d="M389.128 845.389L393.009 842C373.468 821.487 356.748 798.653 343.29 774.157L338.639 776.504C352.303 801.382 369.285 824.559 389.128 845.389Z" fill="white"/>
<path d="M306.105 591.683C308.183 570.998 312.353 550.471 318.504 530.629L313.467 529.192C307.22 549.337 302.995 570.193 300.876 591.182L306.105 591.683Z" fill="white"/>
<path d="M826.398 869.265C826.88 869.265 827.375 869.12 827.788 868.83C854.512 850.571 878.016 828.541 897.653 803.333C898.451 802.318 898.231 800.868 897.158 800.104C896.098 799.339 894.584 799.55 893.786 800.578C874.452 825.39 851.306 847.09 824.994 865.072C823.907 865.811 823.66 867.248 824.43 868.289C824.898 868.935 825.641 869.265 826.398 869.265Z" fill="white"/>
<path d="M910.063 784.216C910.861 784.216 911.646 783.834 912.1 783.135C942.65 736.492 959.232 682.61 960.057 627.318C960.071 626.237 959.301 625.301 958.213 625.05C957.126 624.8 955.984 625.314 955.489 626.276C952.737 631.655 946.902 635.136 940.627 635.136C935.92 635.136 931.421 633.211 928.269 629.849C925.077 626.448 923.604 622.044 924.127 617.456C924.925 610.43 930.774 604.576 938.053 603.534C941.728 603.007 945.347 603.614 948.539 605.275C950.879 606.501 953.7 606.395 955.915 605.024C958.103 603.666 959.287 601.359 959.08 598.868C956.287 565.078 947.686 532.303 933.498 501.467C932.962 500.307 931.544 499.779 930.333 500.293C929.122 500.807 928.572 502.165 929.109 503.325C943.076 533.687 951.553 565.961 954.292 599.237C954.388 600.357 953.631 600.951 953.301 601.161C952.558 601.623 951.636 601.649 950.837 601.227C946.723 599.078 942.044 598.301 937.338 598.973C927.939 600.318 920.37 607.885 919.352 616.969C918.691 622.796 920.646 628.61 924.691 632.934C928.751 637.258 934.558 639.75 940.627 639.75C946.021 639.75 951.168 637.759 955.048 634.371C952.984 686.315 936.787 736.768 908.027 780.696C907.325 781.777 907.655 783.201 908.783 783.874C909.196 784.098 909.637 784.216 910.063 784.216Z" fill="white"/>
<path d="M454.453 831.295L459.27 831.216C459.27 831.071 458.829 816.951 440.252 812.745C438.944 812.455 437.527 812.31 435.917 812.31H413.472C408.532 812.31 403.936 810.161 400.867 806.404C387.615 790.241 376.097 772.733 366.63 754.368L362.322 756.412C371.928 775.067 383.625 792.851 397.083 809.252C401.087 814.13 407.06 816.925 413.472 816.925H435.917C437.155 816.925 438.215 817.03 439.151 817.241C453.958 820.577 454.439 830.86 454.453 831.295Z" fill="white"/>
<path d="M335.527 601.623C336.436 589.349 338.156 577.022 340.633 564.985L335.913 564.089C333.394 576.31 331.647 588.835 330.725 601.293L335.527 601.623Z" fill="white"/>
<path d="M283.591 794.116C343.163 794.116 391.63 747.683 391.63 690.611C391.63 633.539 343.163 587.106 283.591 587.106C224.019 587.106 175.553 633.539 175.553 690.611C175.553 747.683 224.019 794.116 283.591 794.116ZM283.591 592.142C340.26 592.142 386.373 636.32 386.373 690.611C386.373 744.901 340.26 789.079 283.591 789.079C226.923 789.079 180.809 744.901 180.809 690.611C180.809 636.32 226.909 592.142 283.591 592.142Z" fill="white"/>
<path d="M283.593 778.389C334.11 778.389 375.215 739.009 375.215 690.612C375.215 642.215 334.11 602.835 283.593 602.835C233.076 602.835 191.972 642.215 191.972 690.612C191.972 739.009 233.076 778.389 283.593 778.389ZM283.593 607.713C331.303 607.713 370.123 644.904 370.123 690.612C370.123 736.333 331.303 773.524 283.593 773.524C235.87 773.524 197.049 736.333 197.049 690.612C197.049 644.904 235.87 607.713 283.593 607.713Z" fill="white"/>
<path d="M439.053 1013.74C492.267 1013.74 535.573 972.269 535.573 921.274C535.573 870.293 492.281 828.804 439.053 828.804C385.838 828.804 342.532 870.28 342.532 921.274C342.546 972.269 385.838 1013.74 439.053 1013.74ZM439.053 833.682C489.474 833.682 530.495 872.983 530.495 921.288C530.495 969.592 489.474 1008.89 439.053 1008.89C388.632 1008.89 347.61 969.592 347.61 921.288C347.624 872.969 388.632 833.682 439.053 833.682Z" fill="white"/>
<path d="M553.808 517.697C578.289 504.131 606.28 496.959 634.738 496.959C658.544 496.959 681.47 501.798 702.883 511.329L704.837 507.308C682.805 497.5 659.219 492.53 634.738 492.53C605.468 492.53 576.679 499.912 551.497 513.861L553.808 517.697Z" fill="white"/>
<path d="M634.738 811.559C726.553 811.559 801.248 739.998 801.248 652.037C801.248 612.617 786.125 574.767 758.644 545.473L755.203 548.439C781.914 576.916 796.624 613.712 796.624 652.037C796.624 737.546 724.007 807.116 634.738 807.116C545.47 807.116 472.852 737.546 472.852 652.037C472.852 626.223 479.609 600.66 492.393 578.116L488.32 575.993C475.178 599.183 468.215 625.485 468.215 652.037C468.229 739.998 542.924 811.559 634.738 811.559Z" fill="white"/>
<path d="M567.289 523.536C588.316 513.384 611.022 508.23 634.746 508.23C653.599 508.23 671.984 511.539 689.392 518.051L691.305 513.371C673.291 506.621 654.26 503.207 634.76 503.207C610.21 503.207 586.72 508.533 564.95 519.04L567.289 523.536Z" fill="white"/>
<path d="M634.736 800.867C720.4 800.867 790.086 734.105 790.086 652.037C790.086 614.846 775.692 579.237 749.546 551.775L745.679 555.164C770.93 581.689 784.843 616.098 784.843 652.037C784.843 731.337 717.51 795.844 634.736 795.844C551.963 795.844 484.63 731.337 484.63 652.037C484.63 630.587 489.433 609.942 498.928 590.693L494.194 588.544C484.369 608.465 479.401 629.823 479.401 652.024C479.401 734.105 549.087 800.867 634.736 800.867Z" fill="white"/>
<path d="M575.648 527.044C594.253 518.949 614.138 514.849 634.738 514.849C650.371 514.849 665.756 517.248 680.425 521.981L682.021 517.446C666.829 512.542 650.921 510.063 634.738 510.063C613.422 510.063 592.836 514.308 573.584 522.68L575.648 527.044Z" fill="white"/>
<path d="M634.735 794.013C716.449 794.013 782.915 730.323 782.915 652.038C782.915 615.955 768.769 581.558 743.077 555.191L739.416 558.461C764.241 583.945 777.906 617.181 777.906 652.051C777.906 727.699 713.669 789.227 634.721 789.227C555.76 789.227 491.537 727.686 491.537 652.051C491.537 628.453 497.894 605.183 509.922 584.762L505.559 582.415C493.119 603.562 486.541 627.635 486.541 652.065C486.555 730.323 553.021 794.013 634.735 794.013Z" fill="white"/>
<path d="M283.59 717.809C299.237 717.809 311.966 705.614 311.966 690.624C311.966 675.634 299.237 663.439 283.59 663.439C267.944 663.439 255.215 675.634 255.215 690.624C255.201 705.614 267.944 717.809 283.59 717.809ZM283.59 668.225C296.485 668.225 306.971 678.271 306.971 690.624C306.971 702.977 296.485 713.023 283.59 713.023C270.696 713.023 260.21 702.977 260.21 690.624C260.21 678.271 270.696 668.225 283.59 668.225Z" fill="white"/>
<path d="M216.308 702.148C222.927 702.148 228.294 696.993 228.294 690.665C228.294 684.324 222.913 679.169 216.308 679.169C209.689 679.169 204.322 684.324 204.322 690.665C204.308 696.993 209.689 702.148 216.308 702.148ZM216.308 683.968C220.161 683.968 223.299 686.974 223.299 690.665C223.299 694.357 220.161 697.362 216.308 697.362C212.455 697.362 209.317 694.357 209.317 690.665C209.317 686.974 212.455 683.968 216.308 683.968Z" fill="white"/>
<path d="M940.644 630.719C947.263 630.719 952.63 625.564 952.63 619.236C952.63 612.895 947.249 607.753 940.644 607.753C934.025 607.753 928.658 612.908 928.658 619.236C928.658 625.564 934.039 630.719 940.644 630.719ZM940.644 612.526C944.497 612.526 947.635 615.531 947.635 619.223C947.635 622.914 944.497 625.92 940.644 625.92C936.791 625.92 933.653 622.914 933.653 619.223C933.653 615.531 936.791 612.526 940.644 612.526Z" fill="white"/>
<path d="M891.137 795.804C897.756 795.804 903.123 790.649 903.123 784.321C903.123 777.98 897.742 772.825 891.137 772.825C884.518 772.825 879.151 777.98 879.151 784.321C879.137 790.649 884.518 795.804 891.137 795.804ZM891.137 777.611C894.99 777.611 898.128 780.617 898.128 784.308C898.128 788 894.99 791.006 891.137 791.006C887.284 791.006 884.146 788 884.146 784.308C884.146 780.617 887.284 777.611 891.137 777.611Z" fill="white"/>
<path d="M316.236 759.904C322.855 759.904 328.222 754.749 328.222 748.421C328.222 742.08 322.841 736.925 316.236 736.925C309.617 736.925 304.236 742.08 304.236 748.421C304.25 754.749 309.63 759.904 316.236 759.904ZM316.236 741.724C320.089 741.724 323.226 744.729 323.226 748.421C323.226 752.112 320.089 755.118 316.236 755.118C312.383 755.118 309.245 752.112 309.245 748.421C309.245 744.729 312.383 741.724 316.236 741.724Z" fill="white"/>
<path d="M316.233 647.132C322.852 647.132 328.232 641.977 328.232 635.636C328.232 629.294 322.852 624.139 316.233 624.139C309.614 624.139 304.247 629.294 304.247 635.636C304.247 641.977 309.627 647.132 316.233 647.132ZM316.233 628.938C320.086 628.938 323.223 631.944 323.223 635.636C323.223 639.327 320.086 642.333 316.233 642.333C312.38 642.333 309.242 639.327 309.242 635.636C309.242 631.944 312.38 628.938 316.233 628.938Z" fill="white"/>
<path d="M283.592 710.242C294.89 710.242 304.082 701.435 304.082 690.612C304.082 679.788 294.89 670.981 283.592 670.981C272.294 670.981 263.101 679.788 263.101 690.612C263.101 701.435 272.294 710.242 283.592 710.242ZM283.592 675.78C292.137 675.78 299.073 682.438 299.073 690.612C299.073 698.799 292.124 705.443 283.592 705.443C275.046 705.443 268.11 698.786 268.11 690.612C268.097 682.438 275.046 675.78 283.592 675.78Z" fill="white"/>
<path d="M719.187 676.374C731.586 676.374 741.673 666.71 741.673 654.832C741.673 642.953 731.586 633.29 719.187 633.29C706.788 633.29 696.701 642.953 696.701 654.832C696.701 666.697 706.788 676.374 719.187 676.374ZM719.187 638.075C728.834 638.075 736.678 645.59 736.678 654.832C736.678 664.073 728.834 671.588 719.187 671.588C709.541 671.588 701.697 664.073 701.697 654.832C701.697 645.59 709.554 638.075 719.187 638.075Z" fill="white"/>
<path d="M699.208 620.646C711.606 620.646 721.693 610.983 721.693 599.104C721.693 593.343 719.354 587.938 715.102 583.877L711.565 587.265C714.868 590.429 716.684 594.635 716.684 599.104C716.684 608.346 708.84 615.861 699.194 615.861C696.084 615.861 693.043 615.069 690.387 613.58L687.868 617.719C691.295 619.631 695.217 620.646 699.208 620.646Z" fill="white"/>
<path d="M640.048 754.485C652.446 754.485 662.533 744.822 662.533 732.943C662.533 721.065 652.446 711.401 640.048 711.401C627.649 711.401 617.562 721.065 617.562 732.943C617.562 744.822 627.649 754.485 640.048 754.485ZM640.048 716.2C649.694 716.2 657.538 723.715 657.538 732.956C657.538 742.198 649.694 749.713 640.048 749.713C630.401 749.713 622.557 742.198 622.557 732.956C622.557 723.702 630.401 716.2 640.048 716.2Z" fill="white"/>
<path d="M578.902 733.644C591.301 733.644 601.388 723.98 601.388 712.102C601.388 700.223 591.301 690.559 578.902 690.559C566.503 690.559 556.416 700.223 556.416 712.102C556.416 723.98 566.517 733.644 578.902 733.644ZM578.902 695.345C588.549 695.345 596.392 702.86 596.392 712.102C596.392 721.343 588.549 728.858 578.902 728.858C569.255 728.858 561.412 721.343 561.412 712.102C561.412 702.86 569.269 695.345 578.902 695.345Z" fill="white"/>
<path d="M695.532 730.019C707.931 730.019 718.018 720.355 718.018 708.477C718.018 696.599 707.931 686.935 695.532 686.935C683.133 686.935 673.046 696.599 673.046 708.477C673.046 720.355 683.133 730.019 695.532 730.019ZM695.532 691.72C705.178 691.72 713.022 699.235 713.022 708.477C713.022 717.719 705.178 725.233 695.532 725.233C685.885 725.233 678.041 717.719 678.041 708.477C678.055 699.235 685.899 691.72 695.532 691.72Z" fill="white"/>
<path d="M819.329 979.953C825.949 979.953 831.315 974.799 831.315 968.47C831.315 962.129 825.935 956.974 819.329 956.974C812.71 956.974 807.344 962.129 807.344 968.47C807.33 974.799 812.71 979.953 819.329 979.953ZM819.329 961.76C823.183 961.76 826.32 964.766 826.32 968.457C826.32 972.149 823.183 975.154 819.329 975.154C815.476 975.154 812.339 972.149 812.339 968.457C812.339 964.766 815.476 961.76 819.329 961.76Z" fill="white"/>
<path d="M891.131 804.902C892.893 804.902 894.64 804.691 896.347 804.296L895.136 799.642C893.829 799.958 892.494 800.117 891.131 800.117C882.035 800.117 874.632 793.024 874.632 784.309C874.632 775.595 882.035 768.502 891.131 768.502C899.347 768.502 906.379 774.369 907.48 782.16L912.434 781.514C910.989 771.376 901.838 763.716 891.131 763.716C879.283 763.716 869.636 772.958 869.636 784.309C869.636 795.673 879.283 804.902 891.131 804.902Z" fill="white"/>
<path d="M419.472 1035.39H805.348C811.582 1035.39 817.444 1033.07 821.848 1028.84C826.252 1024.62 828.687 1019 828.674 1013.03C828.674 1013.03 828.674 992.413 828.674 986.77C835.967 983.369 840.604 976.329 840.604 968.458C840.604 960.574 835.967 953.547 828.674 950.159V851.414C828.674 839.087 818.201 829.067 805.348 829.067H439.068V833.431H805.348C815.697 833.431 824.119 841.5 824.119 851.414V953.06L825.55 953.613C831.921 956.052 836.036 961.88 836.036 968.471C836.036 975.05 831.921 980.89 825.536 983.343L824.119 983.883L824.105 985.333C824.105 985.426 824.105 1002.74 824.105 1013.05C824.105 1017.84 822.151 1022.37 818.6 1025.77C815.05 1029.17 810.344 1031.03 805.321 1031.03H419.445C409.097 1031.03 400.675 1022.96 400.675 1013.05V1002.49H396.12V1013.05C396.147 1025.37 406.606 1035.39 419.472 1035.39Z" fill="white"/>
<path d="M434.183 1021.05H789.455C797.629 1021.05 804.289 1014.67 804.289 1006.84V974.787L804.083 974.339C803.285 972.52 802.872 970.555 802.872 968.485C802.872 966.429 803.271 964.438 804.083 962.553L804.275 962.105L804.289 961.393V863.029C804.289 855.198 797.629 848.817 789.455 848.817H498.2V853.682H789.455C794.835 853.682 799.211 857.875 799.211 863.029V961.116C798.289 963.397 797.808 965.901 797.808 968.472C797.808 971.017 798.275 973.469 799.211 975.75V1006.84C799.211 1011.99 794.835 1016.18 789.455 1016.18H434.197C429.78 1016.18 425.913 1013.34 424.771 1009.26L419.858 1010.51C421.578 1016.71 427.482 1021.05 434.183 1021.05Z" fill="white"/>
<path d="M593.599 973.758H650.281C664.592 973.758 676.234 962.604 676.234 948.893V899.665H567.659V948.893C567.645 962.604 579.287 973.758 593.599 973.758ZM671.762 903.95V948.88C671.762 960.231 662.129 969.46 650.281 969.46H593.599C581.75 969.46 572.118 960.231 572.118 948.88V903.95H671.762Z" fill="white"/>
<path d="M593.027 995.209H645.76V969.474H593.027V995.209ZM641.287 990.924H597.499V973.759H641.287V990.924Z" fill="white"/>
<path d="M589.71 672.248C621.608 672.248 647.548 647.384 647.548 616.838C647.548 586.278 621.608 561.427 589.71 561.427C557.811 561.427 531.872 586.291 531.872 616.838C531.872 647.397 557.825 672.248 589.71 672.248ZM589.71 566.081C618.925 566.081 642.69 588.849 642.69 616.838C642.69 644.827 618.925 667.595 589.71 667.595C560.495 667.595 536.729 644.827 536.729 616.838C536.729 588.849 560.509 566.081 589.71 566.081Z" fill="white"/>
<path d="M589.706 682.149C627.302 682.149 657.879 652.855 657.879 616.837C657.879 580.819 627.288 551.525 589.706 551.525C552.111 551.525 521.534 580.819 521.534 616.837C521.534 652.855 552.125 682.149 589.706 682.149ZM589.706 557.01C624.137 557.01 652.154 583.852 652.154 616.837C652.154 649.823 624.137 676.664 589.706 676.664C555.276 676.664 527.258 649.823 527.258 616.837C527.258 583.852 555.276 557.01 589.706 557.01Z" fill="white"/>
<path d="M589.711 637.39C602.151 637.39 612.266 627.7 612.266 615.781C612.266 603.863 602.151 594.173 589.711 594.173C577.271 594.173 567.157 603.863 567.157 615.781C567.17 627.7 577.285 637.39 589.711 637.39ZM589.711 599.671C598.986 599.671 606.527 606.896 606.527 615.781C606.527 624.667 598.986 631.892 589.711 631.892C580.436 631.892 572.895 624.667 572.895 615.781C572.895 606.909 580.436 599.671 589.711 599.671Z" fill="white"/>
<path d="M589.709 646.935C608.08 646.935 623.038 632.618 623.038 615.004C623.038 597.404 608.094 583.073 589.709 583.073C571.338 583.073 556.379 597.391 556.379 615.004C556.393 632.618 571.338 646.935 589.709 646.935ZM589.709 587.951C605.286 587.951 617.96 600.094 617.96 615.017C617.96 629.941 605.286 642.083 589.709 642.083C574.131 642.083 561.457 629.941 561.457 615.017C561.471 600.094 574.145 587.951 589.709 587.951Z" fill="white"/>
<path d="M590.685 705.06C641.56 705.06 682.939 665.417 682.939 616.677C682.939 567.937 641.56 528.294 590.685 528.294C539.824 528.294 498.43 567.95 498.43 616.677C498.43 665.417 539.824 705.06 590.685 705.06ZM590.685 532.948C638.876 532.948 678.082 570.508 678.082 616.677C678.082 662.846 638.876 700.407 590.685 700.407C542.493 700.407 503.288 662.846 503.288 616.677C503.288 570.508 542.493 532.948 590.685 532.948Z" fill="white"/>
<path d="M634.737 735.278C682.64 735.278 721.611 697.942 721.611 652.037C721.611 632.683 714.524 613.844 701.671 598.973L697.928 601.939C710.066 615.98 716.754 633.764 716.754 652.037C716.754 695.372 679.956 730.625 634.737 730.625C608.564 730.625 583.738 718.496 568.34 698.18L564.404 700.909C580.725 722.424 607.022 735.278 634.737 735.278Z" fill="white"/>
<path d="M636.053 761.277C699.327 761.277 750.808 711.957 750.808 651.338C750.808 624.483 740.597 598.643 722.047 578.552L717.244 582.625C734.748 601.596 744.395 625.999 744.395 651.352C744.395 708.582 695.791 755.146 636.053 755.146C586.761 755.146 543.661 723.282 531.221 677.666L525.015 679.222C538.198 727.527 583.857 761.277 636.053 761.277Z" fill="white"/>
<path d="M439.049 970.857C466.888 970.857 489.539 949.157 489.539 922.487C489.539 895.816 466.888 874.116 439.049 874.116C411.211 874.116 388.56 895.816 388.56 922.487C388.56 949.157 411.211 970.857 439.049 970.857ZM439.049 878.901C464.136 878.901 484.544 898.453 484.544 922.487C484.544 946.52 464.136 966.072 439.049 966.072C413.963 966.072 393.555 946.52 393.555 922.487C393.555 898.453 413.963 878.901 439.049 878.901Z" fill="white"/>
<path d="M438.889 984.461C474.103 984.461 502.754 957.013 502.754 923.276C502.754 889.539 474.103 862.09 438.889 862.09C403.674 862.09 375.023 889.539 375.023 923.276C375.009 957.013 403.66 984.461 438.889 984.461ZM438.889 867.324C471.09 867.324 497.291 892.426 497.291 923.276C497.291 954.125 471.09 979.227 438.889 979.227C406.687 979.227 380.486 954.125 380.486 923.276C380.486 892.426 406.674 867.324 438.889 867.324Z" fill="white"/>
<path d="M896.237 907.972H968.703V881.051H823.771V905.467H829.014V886.074H963.474V902.949H896.237V907.972Z" fill="white"/>
<path d="M922.086 955.55H968.682V927.996H927.99C924.591 927.996 921.412 926.73 919.004 924.423L878.078 885.202C875.12 882.367 871.198 880.812 867.014 880.812H823.818V907.891L861.152 908.299C863.904 908.326 866.491 909.367 868.445 911.239L909.454 950.527C912.825 953.77 917.311 955.55 922.086 955.55ZM963.521 950.606H922.086C918.687 950.606 915.509 949.34 913.1 947.046L872.092 907.759C869.189 904.977 865.322 903.421 861.207 903.369L828.979 903.013V885.755H867.014C869.808 885.755 872.45 886.797 874.418 888.695L915.343 927.917C918.715 931.16 923.201 932.94 927.976 932.94H963.507V950.606H963.521Z" fill="white"/>
<path d="M963.474 916.487H987.763V874.009H963.474V916.487ZM982.52 911.464H968.704V879.006H982.52V911.464Z" fill="white"/>
<path d="M963.474 962.657H987.763V920.179H963.474V962.657ZM982.52 957.647H968.704V925.189H982.52V957.647Z" fill="white"/>
<path d="M559.789 904.321H687.23V883.491H559.789V904.321ZM682.001 899.311H565.018V888.514H682.001V899.311Z" fill="white"/>
<path d="M580.598 888.066H666.44V849.055H580.598V888.066ZM661.707 883.531H585.332V853.577H661.707V883.531Z" fill="white"/>
<path d="M746.189 1053.97H790.541V1030.7H746.189V1053.97ZM785.298 1048.96H751.418V1035.72H785.298V1048.96Z" fill="white"/>
<path d="M756.369 1064.42H779.295V1031.24H756.369V1064.42ZM773.873 1059.23H761.805V1036.45H773.873V1059.23Z" fill="white"/>
<path d="M668.438 1054.05H712.79V1030.78H668.438V1054.05ZM707.547 1049.04H673.667V1035.8H707.547V1049.04Z" fill="white"/>
<path d="M678.637 1064.51H701.563V1031.33H678.637V1064.51ZM696.128 1059.31H684.059V1036.53H696.128V1059.31Z" fill="white"/>
<path d="M590.706 1054.12H635.045V1030.86H590.706V1054.12ZM629.816 1049.12H595.936V1035.88H629.816V1049.12Z" fill="white"/>
<path d="M600.887 1064.58H623.813V1031.4H600.887V1064.58ZM618.378 1059.39H606.309V1036.6H618.378V1059.39Z" fill="white"/>
<path d="M512.948 1054.2H557.3V1030.94H512.961V1054.2H512.948ZM552.057 1049.19H518.177V1035.96H552.057V1049.19Z" fill="white"/>
<path d="M523.132 1064.66H546.059V1031.48H523.132V1064.66ZM540.637 1059.47H528.568V1036.68H540.637V1059.47Z" fill="white"/>
<path d="M435.201 1054.28H479.553V1031.02H435.214V1054.28H435.201ZM474.324 1049.27H440.444V1036.04H474.324V1049.27Z" fill="white"/>
<path d="M445.397 1064.74H468.323V1031.56H445.397V1064.74ZM462.888 1059.55H450.819V1036.76H462.888V1059.55Z" fill="white"/>
<path d="M356.224 843.027L376.026 829.553L350.348 794.92L330.546 808.394L356.224 843.027ZM368.733 828.367L357.463 836.027L337.853 809.567L349.123 801.907L368.733 828.367Z" fill="white"/>
<path d="M340.82 840.3L369.058 821.091L355.778 803.188L327.54 822.396L340.82 840.3ZM361.489 819.865L342.1 833.049L335.109 823.622L354.498 810.439L361.489 819.865Z" fill="white"/>
<path d="M643.085 284.754H687.438V261.484H643.085V284.754ZM682.195 279.744H648.315V266.507H682.195V279.744Z" fill="white"/>
<path d="M653.278 295.207H676.204V262.023H653.278V295.207ZM670.769 290.012H658.7V267.231H670.769V290.012Z" fill="white"/>
<path d="M55.7904 278.272L87.9502 249.228L71.4093 232.406L39.2495 261.45L55.7904 278.272ZM80.7668 249.031L56.0106 271.39L46.4329 261.647L71.1891 239.288L80.7668 249.031Z" fill="white"/>
<path d="M63.579 270.373L80.0098 255.541L56.492 231.639L40.0612 246.471L63.579 270.373ZM72.8265 255.33L63.7992 263.491L47.2445 246.669L56.2718 238.508L72.8265 255.33Z" fill="white"/>
<path d="M447.282 572.303L473.525 547.162L469.933 543.721L447.282 565.421L210.714 338.794L312.409 241.367L548.963 467.994L519.679 496.049L523.271 499.49L556.146 467.994L312.409 234.485L203.531 338.794L447.282 572.303Z" fill="white"/>
<path d="M367.3 495.692L370.891 492.251L214.042 341.971L315.737 244.543L472.586 394.824L476.178 391.383L315.737 237.675L206.858 341.971L367.3 495.692Z" fill="white"/>
<path d="M236.337 370.224L345.215 265.915L334.99 256.12L226.112 360.429L236.337 370.224ZM338.031 265.915L236.337 363.342L233.296 360.429L334.99 263.002L338.031 265.915Z" fill="white"/>
<path d="M250.935 384.21L359.813 279.901L349.589 270.106L240.711 374.415L250.935 384.21ZM352.63 279.901L250.935 377.329L247.894 374.415L349.589 276.988L352.63 279.901Z" fill="white"/>
<path d="M265.745 398.383L374.623 294.074L364.399 284.278L255.52 388.587L265.745 398.383ZM367.44 294.087L265.745 391.514L262.69 388.601L364.385 291.173L367.44 294.087Z" fill="white"/>
<path d="M343.895 471.963L452.773 367.654L442.549 357.858L333.671 462.167L343.895 471.963ZM445.576 367.654L343.882 465.081L340.827 462.167L442.521 364.74L445.576 367.654Z" fill="white"/>
<path d="M433.078 585.894L473.522 547.16L469.931 543.719L433.078 579.012L160.677 318.055L291.834 192.401L564.236 453.372L519.691 496.047L523.282 499.488L571.419 453.372L291.834 185.52L153.493 318.055L433.078 585.894Z" fill="white"/>
<path d="M121.887 379.373L353.913 157.097L267.342 74.1587L35.3153 296.448L121.887 379.373ZM346.73 157.097L121.887 372.491L42.4986 296.435L267.342 81.0273L346.73 157.097Z" fill="white"/>
<path d="M97.334 243.911L270.931 77.5992L254.183 61.5547L80.5867 227.866L97.334 243.911ZM263.747 77.5992L97.334 237.029L87.7699 227.866L254.183 68.4365L263.747 77.5992Z" fill="white"/>
<path d="M97.4598 218.599L244.126 78.0874L197.572 33.4872C193.416 29.5057 187.884 27.304 181.994 27.304C176.105 27.304 170.573 29.5057 166.417 33.4872L50.9059 144.151C46.75 148.132 44.4519 153.432 44.4519 159.074C44.4519 164.717 46.75 170.017 50.9059 173.998L97.4598 218.599ZM236.929 78.0874L97.4461 211.717L54.4838 170.558C51.2774 167.486 49.516 163.412 49.516 159.074C49.516 154.737 51.2774 150.663 54.4838 147.592L169.995 36.9281C173.201 33.8563 177.453 32.1688 181.981 32.1688C186.508 32.1688 190.76 33.8563 193.967 36.9281L236.929 78.0874Z" fill="white"/>
<path d="M81.4269 121.779L138.77 66.8429L114.605 43.6925L57.2623 98.6287L81.4269 121.779ZM131.586 66.8429L81.4269 114.897L64.4456 98.6287L114.605 50.5743L131.586 66.8429Z" fill="white"/>
<path d="M56.8383 90.6396L106.901 42.6774L89.3696 25.8815L39.3067 73.8436L56.8383 90.6396ZM99.718 42.6906L56.8383 83.7708L46.4899 73.8568L89.3696 32.7765L99.718 42.6906Z" fill="white"/>
<path d="M68.9042 94.343L109.555 55.3986L97.9953 44.3243L57.3449 83.2687L68.9042 94.343ZM102.371 55.3986L68.9042 87.4612L64.5282 83.2687L97.9953 51.2062L102.371 55.3986Z" fill="white"/>
<path d="M71.3107 76.7675L92.957 56.0428L75.4254 39.2468L53.7928 59.9715L71.3107 76.7675ZM85.7737 56.0428L71.3107 69.8856L60.9624 59.9715L75.4116 46.1287L85.7737 56.0428Z" fill="white"/>
<path d="M353.487 250.039L393.931 211.292L376.399 194.496L335.955 233.243L353.487 250.039ZM386.747 211.292L353.487 243.157L343.138 233.243L376.399 201.378L386.747 211.292Z" fill="white"/>
<path d="M379.301 274.773L419.745 236.026L402.213 219.23L361.769 257.977L379.301 274.773ZM412.576 236.026L379.315 267.891L368.967 257.977L402.227 226.112L412.576 236.026Z" fill="white"/>
<path d="M405.131 299.517L445.575 260.771L428.044 243.975L387.6 282.722L405.131 299.517ZM438.392 260.771L405.131 292.636L394.783 282.722L428.044 250.857L438.392 260.771Z" fill="white"/>
<path d="M430.951 324.249L471.395 285.503L453.863 268.707L413.419 307.453L430.951 324.249ZM464.225 285.503L430.964 317.368L420.616 307.453L453.877 275.588L464.225 285.503Z" fill="white"/>
<path d="M456.777 348.996L497.221 310.25L479.689 293.454L439.245 332.201L456.777 348.996ZM490.037 310.25L456.777 342.115L446.428 332.201L479.689 300.336L490.037 310.25Z" fill="white"/>
<path d="M482.591 373.74L523.049 334.98L505.517 318.184L465.073 356.931L482.591 373.74ZM515.866 334.98L482.605 366.845L472.257 356.931L505.517 325.066L515.866 334.98Z" fill="white"/>
<path d="M179.333 416.866L219.777 378.12L202.246 361.324L161.802 400.071L179.333 416.866ZM212.608 378.12L179.347 409.985L168.999 400.071L202.259 368.206L212.608 378.12Z" fill="white"/>
<path d="M205.165 441.611L245.609 402.865L228.078 386.069L187.634 424.815L205.165 441.611ZM238.426 402.865L205.165 434.73L194.817 424.815L228.078 392.95L238.426 402.865Z" fill="white"/>
<path d="M230.985 466.345L271.429 427.599L253.897 410.803L213.453 449.549L230.985 466.345ZM264.259 427.599L230.998 459.464L220.65 449.549L253.911 417.684L264.259 427.599Z" fill="white"/>
<path d="M256.811 491.09L297.255 452.343L279.723 435.547L239.279 474.294L256.811 491.09ZM290.072 452.343L256.811 484.208L246.463 474.294L279.723 442.429L290.072 452.343Z" fill="white"/>
<path d="M282.623 515.822L323.067 477.075L305.536 460.279L265.092 499.026L282.623 515.822ZM315.898 477.075L282.637 508.94L272.289 499.026L305.549 467.161L315.898 477.075Z" fill="white"/>
<path d="M308.458 540.568L348.902 501.821L331.371 485.025L290.927 523.772L308.458 540.568ZM341.719 501.821L308.458 533.686L298.11 523.772L331.371 491.907L341.719 501.821Z" fill="white"/>
<path d="M130.53 387.638L362.543 165.349L350.323 153.642L118.297 375.918L130.53 387.638ZM355.36 165.362L130.53 380.77L125.494 375.944L350.337 160.55L355.36 165.362Z" fill="white"/>
<path d="M195.242 353.406L197.344 357.835L131.616 386.466L129.514 382.038L195.242 353.406Z" fill="white"/>
<path d="M356.571 164.424L361.193 166.437L332.578 226.731L327.956 224.717L356.571 164.424Z" fill="white"/>
<path d="M351.419 415.483C360.598 415.483 369.79 412.134 376.781 405.437C390.762 392.043 390.762 370.237 376.781 356.842C362.786 343.448 340.038 343.448 326.057 356.842C319.287 363.329 315.544 371.964 315.544 381.14C315.544 390.316 319.273 398.951 326.057 405.437C333.048 412.134 342.24 415.483 351.419 415.483ZM351.419 351.661C359.304 351.661 367.189 354.535 373.189 360.283C385.189 371.779 385.189 390.5 373.189 401.996C361.189 413.492 341.648 413.492 329.649 401.996C323.828 396.42 320.635 389.024 320.635 381.14C320.635 373.256 323.842 365.86 329.649 360.283C335.649 354.535 343.534 351.661 351.419 351.661Z" fill="white"/>
<path d="M351.697 403.422C357.725 403.422 363.752 401.22 368.348 396.83C377.527 388.036 377.527 373.732 368.348 364.939C359.17 356.145 344.239 356.145 335.06 364.939C325.882 373.732 325.882 388.036 335.06 396.83C339.643 401.22 345.67 403.422 351.697 403.422ZM351.697 363.198C356.431 363.198 361.151 364.925 364.757 368.366C371.954 375.261 371.954 386.481 364.757 393.376C357.56 400.271 345.835 400.271 338.652 393.376C331.455 386.481 331.455 375.261 338.652 368.366C342.244 364.925 346.977 363.198 351.697 363.198Z" fill="white"/>
<path d="M351.422 393.398C354.697 393.398 357.986 392.199 360.477 389.812C362.899 387.492 364.233 384.407 364.233 381.138C364.233 377.855 362.899 374.783 360.477 372.463C355.481 367.677 347.362 367.677 342.367 372.463C339.945 374.783 338.61 377.868 338.61 381.138C338.61 384.42 339.945 387.492 342.367 389.812C344.871 392.199 348.147 393.398 351.422 393.398ZM351.422 373.728C353.403 373.728 355.371 374.453 356.885 375.891C358.344 377.288 359.156 379.147 359.156 381.124C359.156 383.102 358.357 384.961 356.885 386.358C353.871 389.245 348.972 389.245 345.959 386.358C344.5 384.961 343.688 383.102 343.688 381.124C343.688 379.147 344.486 377.288 345.959 375.891C347.472 374.453 349.44 373.728 351.422 373.728Z" fill="white"/>
<path d="M285.921 266.758L296.091 257.015L269.257 231.32L259.087 241.063L285.921 266.758ZM288.907 257.015L285.921 259.876L266.284 241.063L269.27 238.202L288.907 257.015Z" fill="white"/>
<path d="M238.733 311.964L257.861 293.639L231.041 267.944L211.913 286.269L238.733 311.964ZM250.678 293.639L238.733 305.082L219.082 286.269L231.027 274.826L250.678 293.639Z" fill="white"/>
<path d="M482.591 373.743L514.297 343.368L348.269 184.307L316.563 214.682L482.591 373.743ZM507.114 343.368L482.591 366.861L323.746 214.682L348.269 191.189L507.114 343.368Z" fill="white"/>
<path d="M319.04 530.43L350.746 500.055L184.718 340.995L153.012 371.37L319.04 530.43ZM343.549 500.068L319.027 523.562L160.182 371.383L184.704 347.89L343.549 500.068Z" fill="white"/>
<path d="M341.498 137.968L355.094 124.942L306.888 78.7599L293.292 91.7853L341.498 137.968ZM347.91 124.942L341.498 131.086L300.476 91.7853L306.888 85.6417L347.91 124.942Z" fill="white"/>
<path d="M330.324 141.383L341.292 130.875L300.064 91.3771L289.096 101.884L330.324 141.383ZM334.095 130.875L330.311 134.501L296.266 101.884L300.05 98.2589L334.095 130.875Z" fill="white"/>
<path d="M343.413 120.629L361.454 103.345L328.964 72.2186L310.923 89.5025L343.413 120.629ZM354.271 103.345L343.413 113.747L318.107 89.5025L328.964 79.1006L354.271 103.345Z" fill="white"/>
<path d="M354.13 103.203L361.85 95.8067L337.3 72.2871L329.58 79.6831L354.13 103.203ZM354.666 95.8067L354.13 96.3209L336.763 79.6831L337.3 79.1689L354.666 95.8067Z" fill="white"/>
<path d="M361.676 101.001L383.846 79.762L353.571 50.7579L331.402 71.9968L361.676 101.001ZM376.662 79.762L361.676 94.119L338.585 71.9968L353.571 57.6398L376.662 79.762Z" fill="white"/>
<path d="M386.76 89.4377L404.168 72.7603L359.609 30.0717L342.202 46.749L386.76 89.4377ZM396.985 72.7603L386.76 82.5559L349.385 46.749L359.609 36.9535L396.985 72.7603Z" fill="white"/>
<path d="M394.065 69.9665L410.358 54.3571L380.084 25.353L363.791 40.9624L394.065 69.9665ZM403.175 54.3571L394.065 63.0846L370.974 40.9624L380.084 32.2349L403.175 54.3571Z" fill="white"/>
<path d="M404.14 55.2917L416.305 43.6374L391.755 20.1178L379.59 31.7721L404.14 55.2917ZM409.135 43.6374L404.154 48.4099L386.787 31.7721L391.769 26.9996L409.135 43.6374Z" fill="white"/>
<path d="M411.213 43.4934L418.933 36.0974L401.373 19.275L393.653 26.671L411.213 43.4934ZM411.749 36.0974L411.213 36.6116L400.823 26.671L401.36 26.1569L411.749 36.0974Z" fill="white"/>
<path d="M418.584 41.4488L438.372 22.4907L415.652 0.724487L395.864 19.6826L418.584 41.4488ZM431.189 22.4907L418.584 34.567L403.047 19.6826L415.652 7.60648L431.189 22.4907Z" fill="white"/>
<path d="M421.762 38.4049L438.372 22.4922L421.996 6.80359L405.387 22.7163L421.762 38.4049ZM431.189 22.4922L421.762 31.5229L412.57 22.7163L421.996 13.6856L431.189 22.4922Z" fill="white"/>
<path d="M389.271 25.8704L410.23 45.9503L406.64 49.3901L385.68 29.3102L389.271 25.8704Z" fill="white"/>
<path d="M357.556 35.5008L398.521 74.7471L394.931 78.1869L353.966 38.9406L357.556 35.5008Z" fill="white"/>
<path d="M374.208 77.4268L391.616 60.7495L371.511 41.4882L354.103 58.1655L374.208 77.4268ZM384.433 60.7495L374.208 70.545L361.287 58.1655L371.511 48.37L384.433 60.7495Z" fill="white"/>
<path d="M510.36 534.149L512.148 532.409L1.19751 46.3536L0.000183105 47.5006L0.908478 48.3576L0.302979 48.9377L510.36 534.149Z" fill="white"/>
<path d="M351.001 192.798H385.335V135.449H332.245V140.314H380.257V187.933H351.001V192.798Z" fill="white"/>
<path d="M579.968 297.159L584.399 294.772C569.51 269.407 511.094 186.363 384.45 182.408L384.285 187.273C508.259 191.136 565.409 272.347 579.968 297.159Z" fill="white"/>
<path d="M626.775 295.854L631.605 294.377C616.303 248.472 578.309 206.772 524.64 176.951C477.04 150.491 422.533 137.453 382.419 142.911L383.134 147.736C457.954 137.518 593.212 195.236 626.775 295.854Z" fill="white"/>
<path d="M612.16 296.908L616.839 295.01C598.908 254.365 562.414 217.332 514.057 190.74C470.503 166.786 421.348 153.958 382.611 156.397L382.941 161.249C460.719 156.318 575.28 213.298 612.16 296.908Z" fill="white"/>
<path d="M599.364 297.014L603.933 294.892C560.847 209.58 457.555 163.504 382.612 168.223L382.942 173.075C456.303 168.434 557.227 213.549 599.364 297.014Z" fill="white"/>
<path d="M396.175 170.285L401.252 170.349L401.041 185.64L395.963 185.576L396.175 170.285Z" fill="white"/>
<path d="M396.516 144.045L401.594 144.109L401.414 157.094L396.337 157.03L396.516 144.045Z" fill="white"/>
<path d="M406.171 171.048L411.248 171.121L411.003 186.742L405.925 186.669L406.171 171.048Z" fill="white"/>
<path d="M406.465 144.208L411.542 144.281L411.315 158.545L406.238 158.471L406.465 144.208Z" fill="white"/>
<path d="M392.046 542.017L394.388 546.334L368.575 559.187L366.233 554.871L392.046 542.017Z" fill="white"/>
<path d="M358.844 511.317L362.435 514.756L348.006 528.583L344.415 525.143L358.844 511.317Z" fill="white"/>
<path d="M1224.53 277.558L1241.08 260.736L1208.92 231.693L1192.37 248.515L1224.53 277.558ZM1233.9 260.934L1224.32 270.676L1199.57 248.317L1209.14 238.574L1233.9 260.934Z" fill="white"/>
<path d="M1216.74 269.647L1240.26 245.745L1223.83 230.914L1200.31 254.816L1216.74 269.647ZM1233.07 245.956L1216.52 262.779L1207.48 254.618L1224.03 237.796L1233.07 245.956Z" fill="white"/>
<path d="M833.05 571.589L1076.79 338.081L967.909 233.771L724.172 467.28L743.465 485.764L747.057 482.323L731.355 467.28L967.909 240.653L1069.6 338.081L833.05 564.708L786.909 520.503L783.317 523.944L833.05 571.589Z" fill="white"/>
<path d="M874.897 531.248L1012.16 399.741L903.575 295.709L766.308 427.216L874.897 531.248ZM1005.57 399.741L874.911 524.92L772.927 427.216L903.589 302.037L1005.57 399.741Z" fill="white"/>
<path d="M984.586 426.386L994.797 416.604L886.744 313.086L876.534 322.868L984.586 426.386ZM987.641 416.604L984.586 419.531L883.689 322.868L886.744 319.941L987.641 416.604Z" fill="white"/>
<path d="M969.129 439.542L979.326 429.773L872.141 327.085L861.944 336.854L969.129 439.542ZM972.198 429.773L969.129 432.713L869.072 336.854L872.154 333.901L972.198 429.773Z" fill="white"/>
<path d="M955.207 454.584L965.432 444.789L857.352 341.244L847.141 351.027L955.207 454.584ZM958.262 444.789L955.207 447.716L854.283 351.027L857.338 348.1L958.262 444.789Z" fill="white"/>
<path d="M874.69 529.693L884.9 519.91L777.426 416.946L767.215 426.728L874.69 529.693ZM877.772 519.91L874.703 522.85L774.357 426.715L777.426 423.775L877.772 519.91Z" fill="white"/>
<path d="M847.233 585.184L1126.82 317.331L988.478 184.796L708.893 452.648L743.461 485.766L747.052 482.325L716.076 452.648L988.478 191.678L1119.64 317.331L847.233 578.302L786.905 520.505L783.313 523.946L847.233 585.184Z" fill="white"/>
<path d="M1158.43 378.662L1245 295.724L1012.99 73.4474L926.415 156.386L1158.43 378.662ZM1237.82 295.724L1158.43 371.78L933.598 156.386L1012.99 80.3292L1237.82 295.724Z" fill="white"/>
<path d="M1182.99 243.199L1199.74 227.155L1026.15 60.8433L1009.4 76.8877L1182.99 243.199ZM1192.55 227.155L1182.98 236.318L1016.57 76.8877L1026.13 67.7251L1192.55 227.155Z" fill="white"/>
<path d="M1182.85 217.872L1229.41 173.272C1238 165.045 1238 151.65 1229.41 143.424L1113.9 32.7603C1105.31 24.5337 1091.33 24.5337 1082.74 32.7603L1036.19 77.3605L1182.85 217.872ZM1098.33 31.4551C1102.67 31.4551 1107.02 33.0371 1110.32 36.2012L1225.83 146.865C1232.44 153.193 1232.44 163.503 1225.83 169.831L1182.87 210.99L1043.39 77.3605L1086.35 36.2012C1089.65 33.0371 1094 31.4551 1098.33 31.4551Z" fill="white"/>
<path d="M1198.89 121.051L1223.06 97.887L1165.71 42.9507L1141.55 66.1013L1198.89 121.051ZM1215.87 97.9002L1198.89 114.182L1148.73 66.1275L1165.71 49.8589L1215.87 97.9002Z" fill="white"/>
<path d="M1223.48 89.9261L1241.01 73.1301L1190.95 25.168L1173.42 41.9639L1223.48 89.9261ZM1233.83 73.1301L1223.48 83.0442L1180.6 41.9639L1190.95 32.0498L1233.83 73.1301Z" fill="white"/>
<path d="M1211.41 93.6307L1222.97 82.5564L1182.32 43.6118L1170.76 54.6861L1211.41 93.6307ZM1215.79 82.5564L1211.41 86.7487L1177.95 54.6861L1182.32 50.4936L1215.79 82.5564Z" fill="white"/>
<path d="M1209 76.0582L1226.53 59.2623L1204.9 38.5376L1187.37 55.3336L1209 76.0582ZM1219.35 59.2623L1209 69.1764L1194.55 55.3336L1204.9 45.4194L1219.35 59.2623Z" fill="white"/>
<path d="M926.832 249.317L944.363 232.521L903.919 193.775L886.388 210.57L926.832 249.317ZM937.18 232.521L926.832 242.435L893.571 210.57L903.919 200.656L937.18 232.521Z" fill="white"/>
<path d="M901.015 274.062L918.547 257.266L878.103 218.519L860.571 235.315L901.015 274.062ZM911.364 257.266L901.015 267.18L867.755 235.315L878.103 225.401L911.364 257.266Z" fill="white"/>
<path d="M875.185 298.794L892.717 281.998L852.273 243.251L834.741 260.047L875.185 298.794ZM885.533 281.998L875.185 291.912L841.924 260.047L852.273 250.133L885.533 281.998Z" fill="white"/>
<path d="M849.368 323.539L866.899 306.743L826.455 267.996L808.924 284.792L849.368 323.539ZM859.716 306.743L849.368 316.657L816.107 284.792L826.455 274.878L859.716 306.743Z" fill="white"/>
<path d="M823.54 348.285L841.071 331.489L800.627 292.742L783.096 309.538L823.54 348.285ZM833.888 331.476L823.54 341.39L790.279 309.525L800.627 299.611L833.888 331.476Z" fill="white"/>
<path d="M797.724 373.018L815.256 356.222L774.812 317.475L757.28 334.271L797.724 373.018ZM808.073 356.222L797.724 366.136L764.464 334.271L774.812 324.357L808.073 356.222Z" fill="white"/>
<path d="M1100.97 416.157L1118.5 399.361L1078.06 360.614L1060.53 377.41L1100.97 416.157ZM1111.32 399.361L1100.97 409.275L1067.71 377.41L1078.06 367.496L1111.32 399.361Z" fill="white"/>
<path d="M1075.15 440.887L1092.69 424.091L1052.24 385.344L1034.71 402.14L1075.15 440.887ZM1085.5 424.091L1075.15 434.005L1041.89 402.14L1052.24 392.226L1085.5 424.091Z" fill="white"/>
<path d="M1049.34 465.631L1066.87 448.835L1026.42 410.088L1008.89 426.884L1049.34 465.631ZM1059.68 448.835L1049.34 458.749L1016.08 426.884L1026.42 416.97L1059.68 448.835Z" fill="white"/>
<path d="M1023.51 490.366L1041.04 473.57L1000.59 434.823L983.062 451.619L1023.51 490.366ZM1033.85 473.57L1023.51 483.484L990.246 451.619L1000.59 441.705L1033.85 473.57Z" fill="white"/>
<path d="M997.687 515.11L1015.22 498.315L974.775 459.568L957.243 476.364L997.687 515.11ZM1008.04 498.315L997.687 508.229L964.426 476.364L974.775 466.45L1008.04 498.315Z" fill="white"/>
<path d="M971.859 539.844L989.391 523.049L948.947 484.302L931.415 501.098L971.859 539.844ZM982.207 523.049L971.859 532.963L938.598 501.098L948.947 491.184L982.207 523.049Z" fill="white"/>
<path d="M1149.8 386.927L1162.02 375.22L930.011 152.943L917.791 164.65L1149.8 386.927ZM1154.84 375.22L1149.8 380.045L924.96 164.637L929.997 159.812L1154.84 375.22Z" fill="white"/>
<path d="M1085.21 352.618L1150.93 381.263L1148.82 385.691L1083.1 357.046L1085.21 352.618Z" fill="white"/>
<path d="M923.815 163.739L953.715 226.702L949.093 228.717L919.193 165.754L923.815 163.739Z" fill="white"/>
<path d="M870.135 471.513C879.313 471.513 888.506 468.164 895.496 461.467C909.478 448.072 909.478 426.267 895.496 412.872C881.515 399.478 858.754 399.478 844.773 412.872C830.792 426.267 830.792 448.072 844.773 461.467C851.764 468.164 860.956 471.513 870.135 471.513ZM891.905 458.026C879.905 469.522 860.364 469.522 848.365 458.026C842.544 452.449 839.351 445.053 839.351 437.17C839.351 429.286 842.557 421.89 848.365 416.313C860.364 404.817 879.905 404.817 891.905 416.313C903.918 427.809 903.918 446.53 891.905 458.026Z" fill="white"/>
<path d="M869.857 459.451C875.884 459.451 881.912 457.249 886.508 452.859C890.953 448.6 893.402 442.932 893.402 436.907C893.402 430.882 890.953 425.213 886.508 420.954C882.063 416.696 876.146 414.349 869.857 414.349C863.568 414.349 857.651 416.696 853.206 420.954C844.027 429.748 844.027 444.052 853.206 452.846C857.802 457.262 863.83 459.451 869.857 459.451ZM869.857 419.227C874.784 419.227 879.421 421.073 882.916 424.408C886.398 427.744 888.324 432.187 888.324 436.92C888.324 441.639 886.398 446.082 882.916 449.431C875.719 456.326 864.009 456.326 856.811 449.431C849.614 442.536 849.614 431.317 856.811 424.422C860.293 421.06 864.931 419.227 869.857 419.227Z" fill="white"/>
<path d="M870.134 449.445C873.409 449.445 876.698 448.245 879.189 445.859C881.61 443.538 882.945 440.453 882.945 437.184C882.945 433.901 881.61 430.829 879.189 428.509C874.193 423.723 866.06 423.723 861.079 428.509C856.084 433.295 856.084 441.073 861.079 445.859C863.57 448.245 866.859 449.445 870.134 449.445ZM870.134 429.775C872.198 429.775 874.138 430.539 875.597 431.937C877.056 433.334 877.854 435.193 877.854 437.171C877.854 439.148 877.056 441.007 875.597 442.405C872.68 445.199 867.588 445.199 864.671 442.405C861.657 439.517 861.657 434.824 864.671 431.937C866.129 430.539 868.07 429.775 870.134 429.775Z" fill="white"/>
<path d="M994.395 266.033L1021.22 240.338L1011.05 230.595L984.226 256.29L994.395 266.033ZM1014.03 240.338L994.395 259.151L991.409 256.29L1011.05 237.477L1014.03 240.338Z" fill="white"/>
<path d="M1041.58 311.24L1068.4 285.545L1049.27 267.22L1022.45 292.915L1041.58 311.24ZM1061.23 285.545L1041.6 304.358L1029.65 292.915L1049.29 274.101L1061.23 285.545Z" fill="white"/>
<path d="M797.725 373.018L963.753 213.958L932.047 183.583L766.019 342.643L797.725 373.018ZM956.57 213.958L797.725 366.137L773.202 342.643L932.047 190.464L956.57 213.958Z" fill="white"/>
<path d="M961.276 529.717L1127.3 370.656L1095.6 340.281L929.57 499.342L961.276 529.717ZM1120.12 370.656L961.276 522.835L936.753 499.342L1095.6 347.163L1120.12 370.656Z" fill="white"/>
<path d="M938.813 137.255L987.019 91.0729L973.423 78.0475L925.217 124.23L938.813 137.255ZM979.835 91.0597L938.813 130.36L932.401 124.217L973.423 84.9161L979.835 91.0597Z" fill="white"/>
<path d="M949.99 140.655L991.219 101.156L980.251 90.6624L939.023 130.161L949.99 140.655ZM984.035 101.156L949.99 133.773L946.206 130.147L980.251 97.531L984.035 101.156Z" fill="white"/>
<path d="M936.903 119.906L969.393 88.779L951.352 71.4952L918.862 102.622L936.903 119.906ZM962.209 88.779L936.903 113.024L926.045 102.622L951.352 78.3771L962.209 88.779Z" fill="white"/>
<path d="M926.184 102.489L950.733 78.9698L943.013 71.5736L918.464 95.0934L926.184 102.489ZM943.564 78.9698L926.197 95.6075L925.661 95.0934L943.027 78.4556L943.564 78.9698Z" fill="white"/>
<path d="M918.639 100.289L948.899 71.2985L926.73 50.0597L896.47 79.0505L918.639 100.289ZM941.73 71.2853L918.652 93.3944L903.667 79.0373L926.744 56.9283L941.73 71.2853Z" fill="white"/>
<path d="M893.558 88.7261L938.116 46.0374L920.708 29.3602L876.15 72.0489L893.558 88.7261ZM930.933 46.0374L893.558 81.8443L883.333 72.0489L920.708 36.2421L930.933 46.0374Z" fill="white"/>
<path d="M886.262 69.2538L916.522 40.263L900.229 24.6536L869.955 53.6576L886.262 69.2538ZM909.339 40.2498L886.262 62.3588L877.152 53.6312L900.243 31.5092L909.339 40.2498Z" fill="white"/>
<path d="M876.176 54.5663L900.726 31.0465L888.561 19.3922L864.011 42.9118L876.176 54.5663ZM893.542 31.0465L876.176 47.6843L871.194 42.9118L888.561 26.274L893.542 31.0465Z" fill="white"/>
<path d="M869.103 42.7798L886.662 25.9574L878.942 18.5614L861.383 35.3838L869.103 42.7798ZM879.493 25.9442L869.117 35.8847L868.58 35.3706L878.956 25.43L879.493 25.9442Z" fill="white"/>
<path d="M861.728 40.7243L884.461 18.9581L864.672 0L841.953 21.7662L861.728 40.7243ZM877.264 18.9581L861.714 33.8423L849.109 21.7662L864.645 6.88183L877.264 18.9581Z" fill="white"/>
<path d="M858.548 37.6781L874.924 21.9895L858.314 6.0769L841.938 21.7655L858.548 37.6781ZM867.741 21.9895L858.548 30.7963L849.122 21.7655L858.314 12.9587L867.741 21.9895Z" fill="white"/>
<path d="M891.058 25.2104L894.648 28.6503L873.689 48.7302L870.098 45.2904L891.058 25.2104Z" fill="white"/>
<path d="M922.804 34.7958L926.395 38.2357L885.429 77.482L881.839 74.0421L922.804 34.7958Z" fill="white"/>
<path d="M906.105 76.7023L926.21 57.441L908.802 40.7637L888.697 60.025L906.105 76.7023ZM919.027 57.441L906.105 69.8205L895.88 60.025L908.802 47.6457L919.027 57.441Z" fill="white"/>
<path d="M894.988 192.085H932.528V187.207H900.08V139.601H951.354V134.736H894.988V192.085Z" fill="white"/>
<path d="M748.074 296.896C755.712 264.873 785.395 190.003 896.034 186.549L895.869 181.684C781.693 185.243 751.006 262.684 743.12 295.815L748.074 296.896Z" fill="white"/>
<path d="M702.442 297.858L702.552 296.632L697.501 296.131L700.033 296.355L697.501 296.183L697.378 297.423L702.442 297.858Z" fill="white"/>
<path d="M702.552 296.592C706.915 253.112 730.198 213.429 768.11 184.847C806.504 155.896 855.961 141.394 897.176 147.01L897.892 142.185C855.356 136.384 804.426 151.268 764.973 181.024C725.96 210.437 702.002 251.319 697.502 296.13L702.552 296.592Z" fill="white"/>
<path d="M883.807 143.371L884.385 184.895L879.307 184.959L878.729 143.434L883.807 143.371Z" fill="white"/>
<path d="M873.777 143.43L874.452 185.811L869.375 185.883L868.7 143.502L873.777 143.43Z" fill="white"/>
<path d="M852.728 547.715L857.559 546.212C828.674 460.966 749.602 445.317 748.818 445.172L747.841 449.945C748.612 450.103 824.807 465.29 852.728 547.715Z" fill="white"/>
<path d="M1009.01 402.076L1014.08 397.224L906.298 293.97L901.234 298.821L1009.01 402.076ZM1009.09 397.224L1009.01 397.303L906.215 298.821L906.298 298.742L1009.09 397.224Z" fill="white"/>
<path d="M1215.31 330.622L1225.83 320.536L993.82 98.2596L983.293 108.345L1215.31 330.622ZM1218.65 320.536L1215.31 323.74L990.463 108.332L993.807 105.128L1218.65 320.536Z" fill="white"/>
<path d="M67.4345 330.62L299.447 108.331L288.934 98.2455L56.9073 320.522L67.4345 330.62ZM292.264 108.331L67.4345 323.739L64.0906 320.535L288.934 105.141L292.264 108.331Z" fill="white"/>
<path d="M397.688 1004.82L399.146 1000.15L263.806 961.247V885.335L391.839 846.009L390.284 841.381L258.728 881.789V964.859L397.688 1004.82Z" fill="white"/>
<path d="M823.745 852.757H829.057V838.374C829.057 836.739 829.648 835.17 830.736 833.931C834.052 830.147 840.616 822.527 847.263 813.971C855.327 803.582 887.569 665.576 906.064 584.246L907.124 579.566C909.174 570.087 913.426 550.351 947.54 550.285L947.526 545.196C909.105 545.275 903.89 569.441 901.922 578.537L900.876 583.165C870.478 716.834 848.295 804.123 842.997 810.939C836.433 819.39 829.951 826.917 826.662 830.662C824.777 832.811 823.731 835.553 823.731 838.374V852.757H823.745Z" fill="white"/>
<path d="M388.604 679.301H473.496V684.389H388.604V679.301Z" fill="white"/>
<path d="M746.143 833.55H751.455V812.851C751.455 810.887 752.294 809.067 753.808 807.736C755.322 806.404 757.29 805.758 759.34 805.956L796.688 809.226C799.385 809.463 802.137 808.843 804.435 807.472L830.816 791.81C833.65 790.136 835.701 787.38 836.444 784.269L857.058 697.494C858.118 693.038 857.017 688.437 854.044 684.877C851.086 681.318 846.655 679.274 841.907 679.274H795.986V684.363H841.907C845.031 684.363 847.948 685.708 849.888 688.042C851.843 690.388 852.572 693.42 851.87 696.347L831.256 783.122C830.829 784.915 829.646 786.497 828.022 787.473L801.642 803.135C800.321 803.926 798.738 804.282 797.183 804.15L759.836 800.88C756.327 800.577 752.831 801.698 750.244 803.965C747.643 806.233 746.157 809.476 746.157 812.838V833.55H746.143Z" fill="white"/>
<path d="M364.386 622.44H472.975V627.529H364.386V622.44Z" fill="white"/>
<path d="M796.511 627.528H857.872C867.175 627.528 875.128 621.451 877.193 612.749L894.614 539.422L889.426 538.288L872.005 611.616C870.491 617.983 864.67 622.439 857.858 622.439H796.497V627.528H796.511Z" fill="white"/>
<path d="M502.27 390.592L520.833 371.462H763.126L779.116 388.509L782.887 385.252L765.383 366.597H518.618L498.554 387.283L502.27 390.592Z" fill="white"/>
<path d="M575.395 339.942H755.102V294.208H575.395V339.942ZM750.615 335.631H579.895V298.506H750.615V335.631Z" fill="white"/>
<path d="M516.527 335.352H764.53V340.216H516.527V335.352Z" fill="white"/>
<path d="M567.65 931.637H675.125V921.129H567.65V931.637ZM670.666 927.352H572.137V925.414H670.666V927.352Z" fill="white"/>
<path d="M426.103 1013.45H629.354V1000.33H479.688V1004.62H624.882V1009.17H426.103V1013.45Z" fill="white"/>
<path d="M610.171 1004.62H629.354V990.912H610.171V1004.62ZM624.882 1000.34H614.644V995.21H624.882V1000.34Z" fill="white"/>
<path d="M367.352 489.221C395.314 406.679 471.469 391.596 472.239 391.465L471.276 386.692C470.478 386.837 391.406 402.486 362.535 487.732L367.352 489.221Z" fill="white"/>
<path d="M241.429 768.121C242.048 768.121 242.653 767.896 243.135 767.448L305.913 707.304C306.849 706.408 306.849 704.944 305.913 704.048C304.978 703.151 303.45 703.151 302.514 704.048L239.736 764.192C238.8 765.088 238.8 766.552 239.736 767.448C240.204 767.883 240.809 768.121 241.429 768.121Z" fill="white"/>
<path d="M205.142 733.381C205.761 733.381 206.367 733.157 206.849 732.708L269.985 672.222C270.92 671.325 270.92 669.862 269.985 668.965C269.049 668.069 267.522 668.069 266.586 668.965L203.45 729.452C202.514 730.348 202.514 731.812 203.45 732.708C203.904 733.157 204.523 733.381 205.142 733.381Z" fill="white"/>
<path d="M234.673 753.671C238.98 753.671 243.301 752.102 246.576 748.951L260.09 736.005C266.654 729.716 266.654 719.486 260.09 713.184C253.526 706.895 242.847 706.895 236.269 713.184L222.756 726.13C216.192 732.419 216.192 742.649 222.756 748.951C226.045 752.102 230.366 753.671 234.673 753.671ZM248.186 713.092C251.406 713.092 254.434 714.278 256.691 716.453C258.948 718.615 260.2 721.516 260.2 724.601C260.2 727.686 258.961 730.586 256.691 732.748L243.177 745.695C240.92 747.857 237.893 749.056 234.673 749.056C231.453 749.056 228.425 747.87 226.168 745.695C223.912 743.533 222.659 740.632 222.659 737.547C222.659 734.462 223.898 731.562 226.168 729.4L239.682 716.453C241.939 714.291 244.966 713.092 248.186 713.092Z" fill="white"/>
<path d="M351.973 570.181L369.381 557.973L370.275 537.327L353.982 523.787L332.776 527.545L322.621 545.778L331.166 564.749L351.973 570.181ZM365.294 555.89L351.134 565.817L334.194 561.4L327.244 545.962L335.515 531.118L352.771 528.059L366.037 539.081L365.294 555.89Z" fill="white"/>
<path d="M347.746 558.869C354.599 558.869 360.172 553.53 360.172 546.964C360.172 540.399 354.599 535.059 347.746 535.059C340.892 535.059 335.319 540.399 335.319 546.964C335.319 553.53 340.892 558.869 347.746 558.869ZM347.746 539.054C352.3 539.054 356.002 542.6 356.002 546.964C356.002 551.328 352.3 554.874 347.746 554.874C343.191 554.874 339.489 551.328 339.489 546.964C339.489 542.6 343.191 539.054 347.746 539.054Z" fill="white"/>
<path d="M538.311 422.656H741.26V427.52H538.311V422.656Z" fill="white"/>
<path d="M517.763 402.985H761.789V407.85H517.763V402.985Z" fill="white"/>
<path d="M496.781 601.319L501.693 600.08C483.859 535.098 402.93 463.154 386.898 449.391L383.513 453.016C399.366 466.622 479.318 537.682 496.781 601.319Z" fill="white"/>
<path d="M596.481 532.752L597.21 527.94C522.143 517.432 424.673 411.238 423.71 410.17L419.884 413.374C423.916 417.79 519.57 521.994 596.481 532.752Z" fill="white"/>
<path d="M512.234 559.621C514.408 559.621 516.582 558.83 518.247 557.235L534.761 541.414C538.077 538.237 538.077 533.069 534.761 529.892L415.878 415.998L412.424 419.307L531.307 533.201C532.724 534.559 532.724 536.76 531.307 538.105L514.793 553.925C513.376 555.27 511.078 555.27 509.66 553.925L391.521 440.744L388.067 444.053L506.206 557.235C507.871 558.83 510.059 559.621 512.234 559.621Z" fill="white"/>
<path d="M747.907 994.825L765.314 982.617L766.209 961.971L749.916 948.432L728.71 952.189L718.554 970.422L727.1 989.394L747.907 994.825ZM761.227 980.534L747.067 990.461L730.127 986.045L723.178 970.607L731.435 955.775L748.691 952.717L761.957 963.738L761.227 980.534Z" fill="white"/>
<path d="M743.694 983.514C750.547 983.514 756.12 978.174 756.12 971.609C756.12 965.043 750.547 959.704 743.694 959.704C736.841 959.704 731.268 965.043 731.268 971.609C731.268 978.174 736.841 983.514 743.694 983.514ZM743.694 963.699C748.249 963.699 751.95 967.245 751.95 971.609C751.95 975.973 748.249 979.519 743.694 979.519C739.139 979.519 735.437 975.973 735.437 971.609C735.437 967.258 739.139 963.699 743.694 963.699Z" fill="white"/>
<path d="M746.696 925.032L764.104 912.824L764.998 892.178L748.705 878.639L727.499 882.396L717.343 900.629L725.889 919.6L746.696 925.032ZM760.017 910.741L745.856 920.668L728.916 916.252L721.967 900.814L730.224 885.982L747.48 882.923L760.746 893.945L760.017 910.741Z" fill="white"/>
<path d="M742.471 913.706C749.324 913.706 754.897 908.366 754.897 901.801C754.897 895.235 749.324 889.896 742.471 889.896C735.618 889.896 730.045 895.235 730.045 901.801C730.045 908.379 735.618 913.706 742.471 913.706ZM742.471 893.904C747.026 893.904 750.728 897.45 750.728 901.814C750.728 906.178 747.026 909.724 742.471 909.724C737.916 909.724 734.214 906.178 734.214 901.814C734.214 897.45 737.916 893.904 742.471 893.904Z" fill="white"/>
<path d="M439.057 957.725C441.823 957.725 444.575 957.435 447.244 956.882L446.157 952.122C438.534 953.731 430.194 952.623 423.314 949.024L420.878 953.296C426.424 956.196 432.713 957.725 439.057 957.725ZM459.753 951.872C467.46 947.073 473.102 939.809 475.634 931.385L470.748 930.04C468.56 937.33 463.675 943.645 456.987 947.798L459.753 951.872ZM410.337 945.175L414.176 941.984C408.961 936.249 406.099 928.893 406.099 921.273H401.021C401.021 930.066 404.337 938.556 410.337 945.175ZM471.932 918.847L476.996 918.478C476.308 909.737 472.317 901.51 465.781 895.327L462.217 898.795C467.872 904.16 471.326 911.279 471.932 918.847ZM406.773 914.879C408.369 907.443 412.732 900.799 419.062 896.171L415.979 892.308C408.672 897.648 403.635 905.32 401.791 913.903L406.773 914.879ZM452.543 892.453L454.62 888.01C446.309 884.438 436.731 883.871 428.048 886.389L429.52 891.043C437.034 888.867 445.345 889.355 452.543 892.453Z" fill="white"/>
<path d="M623.819 538.381C683.763 531.789 756.105 483.287 784.439 462.746L781.371 458.87C753.381 479.173 681.946 527.096 623.241 533.556L623.819 538.381Z" fill="white"/>
<path d="M679.71 640.752C701.521 575.414 814.596 505.066 827.422 497.261L824.697 493.161C803.519 506.055 696.774 573.7 674.866 639.276L679.71 640.752Z" fill="white"/>
<path d="M682.985 582.914C684.692 582.914 686.425 582.427 687.925 581.398L821.078 490.167L818.243 486.37L685.091 577.601C683.467 578.722 681.196 578.353 680.04 576.797L666.458 558.604C665.302 557.048 665.674 554.873 667.297 553.765L792.923 467.689L790.088 463.892L664.463 549.968C660.651 552.579 659.77 557.681 662.495 561.333L676.077 579.526C677.715 581.728 680.329 582.914 682.985 582.914Z" fill="white"/>
<path d="M743.692 978.464C747.628 978.464 750.834 975.392 750.834 971.622C750.834 967.851 747.628 964.779 743.692 964.779C739.756 964.779 736.55 967.851 736.55 971.622C736.536 975.392 739.743 978.464 743.692 978.464ZM743.692 967.192C746.238 967.192 748.302 969.169 748.302 971.608C748.302 974.047 746.238 976.025 743.692 976.025C741.146 976.025 739.082 974.047 739.082 971.608C739.082 969.183 741.146 967.192 743.692 967.192Z" fill="white"/>
<path d="M347.75 553.82C351.685 553.82 354.892 550.749 354.892 546.978C354.892 543.208 351.685 540.136 347.75 540.136C343.814 540.136 340.608 543.208 340.608 546.978C340.608 550.749 343.814 553.82 347.75 553.82ZM347.75 542.548C350.295 542.548 352.36 544.526 352.36 546.965C352.36 549.404 350.295 551.381 347.75 551.381C345.204 551.381 343.14 549.404 343.14 546.965C343.14 544.526 345.204 542.548 347.75 542.548Z" fill="white"/>
<path d="M283.594 697.469C287.53 697.469 290.736 694.397 290.736 690.627C290.736 686.856 287.53 683.784 283.594 683.784C279.659 683.784 276.452 686.856 276.452 690.627C276.439 694.397 279.645 697.469 283.594 697.469ZM283.594 686.21C286.14 686.21 288.204 688.188 288.204 690.627C288.204 693.066 286.14 695.043 283.594 695.043C281.048 695.043 278.984 693.066 278.984 690.627C278.984 688.188 281.048 686.21 283.594 686.21Z" fill="white"/>
<path d="M742.469 908.658C746.405 908.658 749.611 905.586 749.611 901.815C749.611 898.045 746.405 894.973 742.469 894.973C738.534 894.973 735.327 898.045 735.327 901.815C735.327 905.586 738.534 908.658 742.469 908.658ZM742.469 897.399C745.015 897.399 747.079 899.376 747.079 901.815C747.079 904.254 745.015 906.232 742.469 906.232C739.923 906.232 737.859 904.254 737.859 901.815C737.859 899.376 739.937 897.399 742.469 897.399Z" fill="white"/>
<path d="M789.715 232.48L810.026 216.396L769.582 169.541L749.271 185.638L789.715 232.48ZM804.123 215.855L790.265 226.837L755.161 186.165L769.018 175.197L804.123 215.855Z" fill="white"/>
<path d="M576.168 329.498H756.178V320.111H576.168V329.498ZM753.205 326.664H579.127V322.946H753.205V326.664Z" fill="white"/>
<path d="M223.261 964.148H254.416V883.358H223.261V964.148ZM249.324 959.27H228.339V888.223H249.324V959.27Z" fill="white"/>
</g>
</svg>
